<svg width="407" height="305" viewBox="0 0 407 305" fill="none" xmlns="http://www.w3.org/2000/svg">
<rect x="56" y="127" width="293" height="177" fill="#E2E500"/>
<circle cx="207.5" cy="129.5" r="83.5" fill="#00CC99"/>
<path d="M253.368 88.386L233.573 82.1194L232.549 107.728C233.212 108.391 233.573 110.139 233.573 111.253V134.181C233.573 135.296 233.272 136.38 232.76 137.344L258.249 152.168C259.364 150.209 259.996 147.95 259.996 145.63V99.8649C259.996 95.1348 257.466 90.7662 253.368 88.386Z" fill="#511C74"/>
<path d="M160.992 88.386L180.787 82.1194L181.811 107.728C181.148 108.391 180.787 110.139 180.787 111.253V134.181C180.787 135.296 181.088 136.38 181.6 137.344L156.111 152.168C154.996 150.209 154.364 147.95 154.364 145.63V99.8649C154.364 95.1348 156.894 90.7662 160.992 88.386Z" fill="#511C74"/>
<path d="M232.76 137.375C232.187 138.429 231.344 139.303 230.289 139.905L210.524 151.354C209.5 151.957 208.355 152.258 207.21 152.258C206.065 152.258 204.92 151.957 203.896 151.354L184.131 139.905C183.077 139.303 182.233 138.399 181.661 137.375L156.171 152.167C157.105 153.794 158.371 155.21 159.907 156.325L201.787 180.548C203.534 181.332 205.372 181.723 207.24 181.723C209.108 181.723 210.976 181.332 212.694 180.548L254.573 156.325C256.11 155.21 257.375 153.794 258.309 152.167L232.76 137.375Z" fill="#660098"/>
<path d="M253.398 88.386L236.436 78.5944C234.628 77.7508 232.549 77.7508 230.771 78.5944L230.5 78.6848C230.44 78.7149 230.38 78.7752 230.289 78.8053L210.524 90.254C209.5 90.8566 208.355 91.1578 207.21 91.1578C206.065 91.1578 204.92 90.8566 203.896 90.254L184.131 78.8053C184.071 78.7752 183.981 78.7149 183.92 78.6848L183.649 78.5944C181.842 77.7508 179.763 77.7508 177.985 78.5944L161.022 88.386C158.974 89.561 157.347 91.2482 156.202 93.2065L203.293 120.382C204.408 121.135 205.764 121.587 207.21 121.587H207.271C208.717 121.587 210.073 121.135 211.187 120.382L258.279 93.2065C257.074 91.2482 255.417 89.5912 253.398 88.386Z" fill="#660098"/>
<path d="M360.963 134.114H340.819C340.819 134.114 319.168 244.938 325.82 291.499L318.47 296.219L351.608 303.579L371.379 210.797L360.963 134.114Z" fill="#E2E2E2"/>
<path d="M349.37 225.061C349.37 241.788 352.931 257.176 358.898 269.37L371.379 210.797L365.77 169.503C355.762 182.644 349.37 202.65 349.37 225.061Z" fill="black"/>
<path d="M349.37 133.297L395.393 130.63V180.523V303.579H362.557L366.381 296.725L349.37 133.297Z" fill="#EDEEEF"/>
<path d="M366.381 296.725L349.37 133.297" stroke="black" stroke-width="1.5"/>
<path d="M353.002 51.5107V57.6575C353.002 62.4104 356.247 66.5493 360.862 67.6837L370.644 70.0878V46.0552L362.51 44.0562C360.22 43.4932 357.798 44.0144 355.942 45.4695C354.086 46.9246 353.002 49.1522 353.002 51.5107L353.002 51.5107Z" fill="#EDEEEF"/>
<path d="M353.002 57.6575C353.002 62.4104 356.247 66.5492 360.862 67.6837L370.644 70.0878" stroke="black" stroke-width="1.5"/>
<path d="M362.968 56.4378C363.228 56.4378 363.439 56.2266 363.439 55.9661C363.439 55.7056 363.228 55.4944 362.968 55.4944C362.707 55.4944 362.496 55.7056 362.496 55.9661C362.496 56.2266 362.707 56.4378 362.968 56.4378Z" fill="black"/>
<path d="M355.723 56.4378C355.983 56.4378 356.194 56.2266 356.194 55.9661C356.194 55.7056 355.983 55.4944 355.723 55.4944C355.462 55.4944 355.251 55.7056 355.251 55.9661C355.251 56.2266 355.462 56.4378 355.723 56.4378Z" fill="black"/>
<path d="M357.848 58.7801V51.5107H354.206" stroke="black" stroke-width="1.5"/>
<path d="M363.856 51.5108H360.215" stroke="black" stroke-width="1.5"/>
<path d="M353.64 50.3204H353.64" stroke="black" stroke-width="1.5"/>
<path d="M369.482 55.2355V57.7599C370.844 57.7599 371.947 56.656 371.947 55.2942C371.947 55.2186 371.944 55.1438 371.937 55.0698C371.799 53.5388 369.482 53.6982 369.482 55.2355Z" fill="#EDEEEF"/>
<path d="M369.482 57.7598C370.844 57.7598 371.947 56.6559 371.947 55.2942" stroke="black" stroke-width="1.5"/>
<path d="M359.839 59.6294C360.477 60.267 361.511 60.267 362.148 59.6294" stroke="#660099" stroke-width="1.5" stroke-linecap="round" stroke-linejoin="round"/>
<path d="M357.848 58.7858L359.441 59.1773" stroke="black" stroke-width="1.5" stroke-linecap="round"/>
<path d="M353.002 54.7005C353.002 54.7005 359.529 51.8736 361.275 48.1736V50.668C361.275 50.668 364.477 49.9196 365.516 48.423C365.516 48.423 366.063 53.9522 369.593 54.7005" stroke="black" stroke-width="1.5"/>
<path d="M370.644 62.738C370.644 62.738 378.902 56.613 374.994 47.3838C371.087 38.1547 361.109 40.8153 352.129 41.6468C347.399 42.0848 341.445 40.3769 336.87 38.6624C332.544 37.0294 327.661 38.4895 324.941 42.2288V42.2288C324.941 42.2288 317.125 38.6535 315.296 47.3007C313.467 55.9478 332.143 72.0367 357.061 65.8631" stroke="black" stroke-width="1.5"/>
<path d="M340.819 95.5898V134.114L395.393 147.527V104.622C395.393 89.4086 385.007 76.1607 370.233 72.5295H370.233C363.148 70.7882 355.656 72.4003 349.914 76.9017C344.173 81.4031 340.819 88.2939 340.819 95.5898L340.819 95.5898Z" fill="#660099"/>
<path d="M355.487 100.544L295.633 125.302C289.336 127.907 283.808 132.075 279.572 137.413L270.742 148.537L288.258 148.528C293.452 148.526 298.596 147.513 303.403 145.546L363.829 120.821C367.057 119.5 369.464 116.722 370.312 113.338C371.159 109.954 370.346 106.369 368.121 103.683C365.054 99.9787 359.931 98.7061 355.487 100.544Z" fill="#EDEEEF"/>
<path d="M270.742 148.537L288.258 148.528C293.452 148.526 298.596 147.513 303.403 145.546L363.829 120.821" stroke="black" stroke-width="1.5"/>
<path d="M384.973 80.5366C384.973 80.5366 404.974 95.1094 405.639 126.705C406.305 158.3 340.819 114.233 340.819 114.233C340.819 114.233 336.462 114.438 334.966 109.679C334.966 109.679 332.139 109.517 332.471 108.3C332.804 107.082 340.453 102.426 353.258 103.091C366.062 103.756 387.846 111.905 387.846 111.905" stroke="black" stroke-width="1.5"/>
<path d="M270.742 148.537L281.757 148.532C281.186 145.298 279.811 142.261 277.757 139.698L270.742 148.537Z" fill="black"/>
<path d="M346.193 80.5366C338.476 90.3634 331.95 101.069 326.75 112.431" stroke="black" stroke-width="1.5"/>
<path d="M315.172 140.73C315.172 140.73 327.508 148.932 339.844 144.118" stroke="black" stroke-width="1.5"/>
<path d="M303.592 122.88C303.592 122.88 304.632 114.021 310.576 115.342C316.521 116.662 315.999 118.866 315.172 119.044C314.346 119.222 310.764 119.044 310.764 119.044L308.579 119.947" stroke="black" stroke-width="1.5"/>
<path d="M0 304.23H396.99" stroke="black" stroke-width="1.5"/>
<path d="M98.7609 144.462L75.6392 130.132L52.7271 198.867L4.35721 223.815L11.4854 271.165L17.5953 258.437C165.76 220.76 98.7609 144.462 98.7609 144.462Z" fill="#00CC99"/>
<path d="M61.042 173.923L52.7271 198.867L34.0005 208.526C31.8527 217.709 30.7884 227.112 30.8294 236.544C30.8224 242.528 31.239 248.506 32.0761 254.433C59.2844 246.257 77.9898 236.647 90.5661 226.569C88.2808 196.826 75.9445 174.079 61.042 173.923Z" fill="black"/>
<path d="M90.3743 129.938L50.6276 127.215L43.4006 130.158L40.004 303.734H76.9214L73.018 296.739L90.3743 129.938Z" fill="#67E6C6"/>
<path d="M71.5945 50.2649V52.8414C72.9844 52.8414 74.1111 51.7147 74.1111 50.3249C74.1111 50.2477 74.1077 50.1713 74.1008 50.0958C73.9598 48.5332 71.5945 48.6959 71.5945 50.2649Z" fill="#EDEEEF"/>
<path d="M43.0592 91.4522V130.771L98.7612 144.462V100.671C98.7612 85.1434 88.1605 71.6221 73.0815 67.916H73.0814C65.85 66.1387 58.203 67.7841 52.3426 72.3784C46.4823 76.9727 43.0592 84.0058 43.0592 91.4522V91.4522Z" fill="#EDEEEF"/>
<path d="M73.017 296.739L90.3734 129.938" stroke="black" stroke-width="1.5" stroke-linecap="round" stroke-linejoin="round"/>
<path d="M81.0275 46.4636V52.7372C81.0275 57.5882 77.7158 61.8125 73.0049 62.9704L63.0213 65.4241V40.8955L71.3226 38.8552C73.6602 38.2806 76.1322 38.8125 78.0266 40.2977C79.921 41.7829 81.0275 44.0564 81.0275 46.4636V46.4636Z" fill="#EDEEEF"/>
<path d="M81.0275 52.7371C81.0275 57.5881 77.7158 61.8124 73.0049 62.9702L63.0213 65.424" stroke="black" stroke-width="1.5" stroke-linecap="round" stroke-linejoin="round"/>
<path d="M70.8565 51.4922C70.5907 51.4922 70.3751 51.2766 70.3751 51.0107C70.3751 50.7448 70.5907 50.5293 70.8565 50.5293C71.1224 50.5293 71.338 50.7448 71.338 51.0107C71.338 51.2766 71.1224 51.4922 70.8565 51.4922Z" fill="black"/>
<path d="M78.2507 51.4922C77.9848 51.4922 77.7693 51.2766 77.7693 51.0107C77.7693 50.7448 77.9848 50.5293 78.2507 50.5293C78.5166 50.5293 78.7321 50.7448 78.7321 51.0107C78.7321 51.2766 78.5166 51.4922 78.2507 51.4922Z" fill="black"/>
<path d="M76.0816 53.8827V46.4634H79.7986" stroke="black" stroke-width="1.5" stroke-linecap="round" stroke-linejoin="round"/>
<path d="M69.9496 46.4632H73.6665" stroke="black" stroke-width="1.5" stroke-linecap="round" stroke-linejoin="round"/>
<path d="M64.2073 52.8414C62.8174 52.8414 61.6907 51.7148 61.6907 50.325" stroke="black" stroke-width="1.5" stroke-linecap="round" stroke-linejoin="round"/>
<path d="M74.0493 54.7498C73.7368 55.0623 73.313 55.2378 72.871 55.2378C72.4291 55.2378 72.0052 55.0623 71.6927 54.7498" stroke="#BA0065" stroke-width="1.5" stroke-linecap="round" stroke-linejoin="round"/>
<path d="M81.4093 46.9322C81.4093 46.9322 75.3651 44.7258 72.8712 40.313C72.8712 40.313 71.5385 48.8272 63.9567 49.4921" stroke="black" stroke-width="1.5" stroke-linecap="round" stroke-linejoin="round"/>
<path d="M81.0278 50.3249C81.0278 50.3249 85.8219 44.9803 82.682 39.6341C79.5421 34.2878 69.8739 34.0901 62.9493 36.4093C53.5742 39.5492 51.0888 52.4594 63.0216 57.3701" stroke="black" stroke-width="1.5" stroke-linecap="round" stroke-linejoin="round"/>
<path d="M54.0838 44.9023C53.6875 46.4065 53.6875 47.9877 54.0838 49.4919" stroke="#660099" stroke-width="1.5" stroke-linecap="round" stroke-linejoin="round"/>
<path d="M53.2346 44.9026C53.2346 44.9026 50.8584 40.511 46.6153 43.17C42.3722 45.829 46.2759 53.5908 53.2346 49.0027" stroke="black" stroke-width="1.5" stroke-linecap="round" stroke-linejoin="round"/>
<path d="M54.3919 70.9363C54.3919 70.9363 26.9886 88.4297 30.8288 124.072C34.6691 159.713 78.3456 147.946 101.429 118.075C101.429 118.075 115.676 113.549 113.87 112.191C112.065 110.833 98.7603 110.833 98.7603 110.833C98.7603 110.833 100.844 106.986 98.7603 106.986C96.6762 106.986 94.1869 110.381 94.1869 110.381L57.5501 118.527L63.7764 103.818" stroke="black" stroke-width="1.5" stroke-linecap="round" stroke-linejoin="round"/>
<path d="M98.7615 110.833H129.717L148.557 70.9363" stroke="black" stroke-width="1.5" stroke-linecap="round" stroke-linejoin="round"/>
<path d="M88.9491 76.8882C88.9491 76.8882 104.936 93.5211 107.652 111.851" stroke="black" stroke-width="1.5" stroke-linecap="round" stroke-linejoin="round"/>
<path d="M98.3013 132.818C98.3013 132.818 132.873 150.146 121.338 110.833" stroke="black" stroke-width="1.5" stroke-linecap="round" stroke-linejoin="round"/>
<path d="M106.298 105.833C106.298 105.833 109.309 87.5095 114.912 90.8844C120.515 94.2593 124.827 96.4014 123.66 97.2253C122.492 98.0492 119.526 97.3901 119.526 97.3901C119.526 97.3901 121.668 101.345 118.043 102.333L120.298 107.771" stroke="black" stroke-width="1.5" stroke-linecap="round" stroke-linejoin="round"/>
<path d="M296.538 302.257C296.538 302.257 300.331 295.506 290.702 294.038C284.98 293.149 279.125 293.86 273.778 296.093C273.778 296.093 280.489 287.874 269.984 284.352C259.48 280.829 248.683 289.048 248.683 289.048C248.683 289.048 259.188 269.381 251.017 267.914C242.847 266.446 238.47 274.959 238.47 274.959C238.47 274.959 239.345 250.595 222.421 250.008C205.497 249.421 207.248 281.123 207.248 281.123C207.248 281.123 199.953 267.033 187.697 266.446C175.442 265.859 181.569 290.047 181.569 290.047C181.569 290.047 179.235 284.352 171.065 283.765C162.894 283.178 163.478 290.066 163.478 290.066C163.478 290.066 152.973 275.252 141.301 276.133C129.629 277.013 134.59 291.69 134.59 291.69C122.626 290.81 120 304 120 304H305L296.538 302.257Z" fill="#1A0067"/>
<path d="M106.701 1L104.064 6.34232L98.1689 7.19875L102.435 11.3569L101.428 17.2284L106.701 14.4563L111.973 17.2284L110.966 11.3569L115.232 7.19875L109.337 6.34232L106.701 1Z" fill="#A65CCC"/>
<path d="M110.966 11.3569L115.232 7.19873" stroke="black" stroke-width="1.5"/>
<path d="M106.701 1L104.064 6.34232L98.1689 7.19875L102.435 11.3569L101.428 17.2284L106.701 14.4563L111.973 17.2284" stroke="black" stroke-width="1.5"/>
<path d="M83.1584 1L80.5222 6.34232L74.6265 7.19875L78.8924 11.3569L77.8854 17.2284L83.1584 14.4563L88.4314 17.2284L87.4244 11.3569L91.6904 7.19875L85.7947 6.34232L83.1584 1Z" fill="#A65CCC"/>
<path d="M87.4243 11.3569L91.6902 7.19873" stroke="black" stroke-width="1.5"/>
<path d="M83.1584 1L80.5222 6.34232L74.6265 7.19875L78.8924 11.3569L77.8854 17.2284L83.1584 14.4563L88.4314 17.2284" stroke="black" stroke-width="1.5"/>
<path d="M59.6159 1L56.9797 6.34232L51.0845 7.19875L55.3504 11.3569L54.343 17.2284L59.6159 14.4563L64.8889 17.2284L63.8819 11.3569L68.1479 7.19875L62.2527 6.34232L59.6159 1Z" fill="#A65CCC"/>
<path d="M63.8818 11.3569L68.1477 7.19873" stroke="black" stroke-width="1.5"/>
<path d="M59.616 1L56.9797 6.34232L51.0845 7.19875L55.3505 11.3569L54.343 17.2284L59.616 14.4563L64.8889 17.2284" stroke="black" stroke-width="1.5"/>
<path d="M36.0739 1L33.4372 6.34232L27.542 7.19875L31.808 11.3569L30.801 17.2284L36.0739 14.4563L41.3469 17.2284L40.3399 11.3569L44.6054 7.19875L38.7102 6.34232L36.0739 1Z" fill="#A65CCC"/>
<path d="M40.3398 11.3569L44.6057 7.19873" stroke="black" stroke-width="1.5"/>
<path d="M36.0739 1L33.4372 6.34232L27.542 7.19875L31.808 11.3569L30.801 17.2284L36.0739 14.4563L41.3469 17.2284" stroke="black" stroke-width="1.5"/>
<path d="M12.5315 1L9.89522 6.34232L4 7.19875L8.2655 11.3569L7.2585 17.2284L12.5315 14.4563L17.8044 17.2284L16.7974 11.3569L21.0634 7.19875L15.1682 6.34232L12.5315 1Z" fill="#A65CCC"/>
<path d="M16.7974 11.3569L21.0632 7.19873" stroke="black" stroke-width="1.5"/>
<path d="M12.5315 1L9.89523 6.34232L4 7.19875L8.2655 11.3569L7.2585 17.2284L12.5315 14.4563L17.8045 17.2284" stroke="black" stroke-width="1.5"/>
</svg>

