<svg width="36" height="35" viewBox="0 0 36 35" fill="none" xmlns="http://www.w3.org/2000/svg">
<path d="M33.3812 3.51608L26.7149 1.40601L26.3673 10.0449C26.5908 10.2683 26.7149 10.8517 26.7149 11.2365V18.9693C26.7149 19.354 26.6156 19.714 26.4418 20.0367L35.0323 25.0388C35.4047 24.381 35.6157 23.6238 35.6157 22.8295V7.38868C35.6157 5.78751 34.7592 4.31046 33.3812 3.51608Z" fill="#511C74"/>
<path d="M2.23452 3.5161L8.90083 1.40601L9.24842 10.045C9.02497 10.2684 8.90083 10.8518 8.90083 11.2365V18.9694C8.90083 19.3542 9.00014 19.7141 9.17394 20.0369L0.583457 25.0266C0.211038 24.3688 0 23.6116 0 22.8172V7.38873C0 5.78755 0.844151 4.31048 2.23452 3.5161Z" fill="#511C74"/>
<path d="M26.4294 20.0366C26.2308 20.3842 25.9453 20.682 25.5977 20.8931L18.9314 24.7532C18.5838 24.9518 18.1989 25.0511 17.8141 25.0511C17.4293 25.0511 17.0444 24.9518 16.6968 24.7532L10.0305 20.8931C9.67053 20.682 9.38501 20.3842 9.1988 20.0366L0.583496 25.0263C0.893846 25.5724 1.31592 26.0565 1.83731 26.4288L15.9644 34.596C16.5479 34.8566 17.181 34.9932 17.8017 34.9932C18.4348 34.9932 19.0555 34.8566 19.639 34.596L33.7661 26.4288C34.2875 26.0565 34.7095 25.5724 35.0199 25.0263L26.4294 20.0366Z" fill="#660098"/>
<path d="M33.3812 3.51589L27.6583 0.214119C27.0501 -0.0713729 26.3549 -0.0713729 25.7466 0.214119L25.6597 0.251357C25.6349 0.26377 25.61 0.276183 25.5852 0.288595L18.9189 4.14893C18.5713 4.34754 18.1865 4.44684 17.8016 4.44684C17.4168 4.44684 17.032 4.34754 16.6844 4.14893L10.0181 0.288595C9.99324 0.276183 9.96841 0.26377 9.94359 0.251357L9.85669 0.214119C9.2484 -0.0713729 8.55322 -0.0713729 7.94494 0.214119L2.22209 3.51589C1.53932 3.9131 0.980689 4.48408 0.595856 5.14195L16.4733 14.3025C16.8458 14.5508 17.3051 14.6997 17.7892 14.6997H17.8016C18.2858 14.6997 18.7451 14.5508 19.1175 14.3025L35.0074 5.15436C34.6226 4.48408 34.0764 3.9131 33.3812 3.51589Z" fill="#660098"/>
</svg>

