<svg width="483" height="278" viewBox="0 0 483 278" fill="none" xmlns="http://www.w3.org/2000/svg">
<rect x="103" y="60.9097" width="205" height="215" fill="#E2E500"/>
<path d="M181.268 108.933L154.501 104.772C154.501 104.772 134.777 198.877 145.362 269.082L142.24 276.007H177.705L187.775 168.921L181.268 108.933Z" fill="#1A0067"/>
<path d="M163.468 106.977C163.468 106.977 156.684 217.702 175.845 270.126L171.843 276.007H205.922C205.922 276.007 209.645 135.17 209.645 104.773L163.468 106.977Z" fill="#EDEEEF"/>
<path d="M163.468 106.977C163.468 106.977 156.684 217.702 175.845 270.126L171.843 276.007" stroke="black" stroke-width="1.5" stroke-linecap="round" stroke-linejoin="round"/>
<path d="M187.775 21.3071V35.6969L169.948 40.0784V15.7948L187.775 11.4133V21.3071Z" fill="#EDEEEF"/>
<path d="M177.705 26.2858C177.968 26.2858 178.181 26.0724 178.181 25.8091C178.181 25.5459 177.968 25.3325 177.705 25.3325C177.441 25.3325 177.228 25.5459 177.228 25.8091C177.228 26.0724 177.441 26.2858 177.705 26.2858Z" fill="black"/>
<path d="M185.025 26.2858C185.289 26.2858 185.502 26.0724 185.502 25.8091C185.502 25.5459 185.289 25.3325 185.025 25.3325C184.762 25.3325 184.549 25.5459 184.549 25.8091C184.549 26.0724 184.762 26.2858 185.025 26.2858Z" fill="black"/>
<path d="M182.878 28.6525V21.307H186.557" stroke="black" stroke-width="1.5" stroke-linecap="round" stroke-linejoin="round"/>
<path d="M176.807 21.3072H180.487" stroke="black" stroke-width="1.5" stroke-linecap="round" stroke-linejoin="round"/>
<path d="M171.122 25.0707V27.6215C169.747 27.6215 168.631 26.5061 168.631 25.1302C168.631 25.0537 168.635 24.9781 168.641 24.9034C168.781 23.3563 171.122 23.5174 171.122 25.0707Z" fill="#EDEEEF"/>
<path d="M171.122 27.6215C169.747 27.6215 168.631 26.5061 168.631 25.1301" stroke="black" stroke-width="1.5" stroke-linecap="round" stroke-linejoin="round"/>
<path d="M181.268 30.4631C180.599 30.4631 179.958 30.1974 179.485 29.7245C179.012 29.2517 178.747 28.6103 178.747 27.9415" stroke="#BA0065" stroke-width="1.5" stroke-linecap="round" stroke-linejoin="round"/>
<path d="M187.774 35.6969L169.948 40.0782" stroke="black" stroke-width="1.5" stroke-linecap="round" stroke-linejoin="round"/>
<path d="M182.878 28.6582L181.268 29.0538" stroke="black" stroke-width="1.5" stroke-linecap="round" stroke-linejoin="round"/>
<path d="M154.501 65.8464V104.773L209.645 118.326V74.9729C209.645 59.6006 199.15 46.2144 184.222 42.5454H184.222C177.063 40.7858 169.493 42.4148 163.691 46.9632C157.89 51.5115 154.501 58.4744 154.501 65.8464Z" fill="#00CC99"/>
<path d="M187.774 20.1044C187.774 19.498 194.355 8.74426 178.181 8.52022C162.007 8.29619 169.877 23.8211 169.877 23.8211" stroke="black" stroke-width="1.5" stroke-linecap="round" stroke-linejoin="round"/>
<path d="M171.123 21.9904C171.123 21.9904 173.489 18.4618 173.657 17.0336C173.657 17.0336 185.229 17.2016 187.13 14.5132" stroke="black" stroke-width="1.5" stroke-linecap="round" stroke-linejoin="round"/>
<path d="M168.797 53.4741L160.887 94.662L163.8 102.279L171.122 96.0062L170.633 53.7756L173.209 50.079H167.048L168.797 53.4741Z" fill="black"/>
<path d="M198.509 50.079C198.509 50.079 263.72 113.481 193.484 153.472L185.974 141.71L201.214 102.279L186.557 81.8921" stroke="black" stroke-width="1.5" stroke-linecap="round" stroke-linejoin="round"/>
<path d="M193.485 153.472L178.892 130.62" stroke="black" stroke-width="1.5" stroke-linecap="round" stroke-linejoin="round"/>
<path d="M158.778 52.1586C158.778 52.1586 126.773 101.791 148.647 139.449" stroke="black" stroke-width="1.5" stroke-linecap="round" stroke-linejoin="round"/>
<path d="M25 276.095H406.41" stroke="black" stroke-width="1.5"/>
<path d="M312.462 110.365C312.462 110.365 369.049 135.665 401.576 183.727H411.771L391.867 206.544L328.755 164.308C328.755 164.308 289.917 158.455 278.266 149.744C266.615 141.034 285.179 108.246 285.179 108.246" fill="#1A0067"/>
<path d="M304.502 109.57L266.604 106.974L259.714 109.78L256.475 275.286H291.675L287.953 268.616L304.502 109.57Z" fill="#EDEEEF"/>
<path d="M275.939 29.9765V35.9585C275.939 40.584 279.097 44.6118 283.589 45.7158L293.108 48.0555V24.6673L285.193 22.7218C282.964 22.174 280.607 22.6812 278.801 24.0973C276.994 25.5134 275.939 27.6813 275.939 29.9765L275.939 29.9765Z" fill="#EDEEEF"/>
<path d="M275.939 35.9585C275.939 40.584 279.097 44.6119 283.589 45.7159L293.108 48.0556" stroke="black" stroke-width="1.5"/>
<path d="M285.638 34.7715C285.891 34.7715 286.097 34.566 286.097 34.3124C286.097 34.0589 285.891 33.8534 285.638 33.8534C285.384 33.8534 285.179 34.0589 285.179 34.3124C285.179 34.566 285.384 34.7715 285.638 34.7715Z" fill="black"/>
<path d="M278.587 34.7715C278.841 34.7715 279.046 34.566 279.046 34.3124C279.046 34.0589 278.841 33.8534 278.587 33.8534C278.334 33.8534 278.128 34.0589 278.128 34.3124C278.128 34.566 278.334 34.7715 278.587 34.7715Z" fill="black"/>
<path d="M280.656 37.0508V29.9764" stroke="black" stroke-width="1.5"/>
<path d="M276.56 28.8181H276.56" stroke="black" stroke-width="1.5"/>
<path d="M291.977 33.6012V36.0579C292.614 36.0579 293.224 35.8051 293.674 35.3551C294.124 34.9051 294.377 34.2948 294.377 33.6584C294.377 33.5848 294.374 33.512 294.367 33.44C294.233 31.95 291.977 32.1051 291.977 33.6012Z" fill="#EDEEEF"/>
<path d="M291.977 36.0579C292.614 36.0579 293.224 35.8051 293.674 35.3551C294.124 34.9052 294.377 34.2948 294.377 33.6584" stroke="black" stroke-width="1.5"/>
<path d="M282.593 37.8776C283.214 38.4981 284.22 38.4981 284.84 37.8776" stroke="#BA0065" stroke-width="1.5" stroke-linecap="round" stroke-linejoin="round"/>
<path d="M280.656 37.0566L282.206 37.4376" stroke="black" stroke-width="1.5" stroke-linecap="round"/>
<path d="M312.462 72.8736V110.365L259.351 123.418V81.6637C259.351 66.8581 269.458 53.9654 283.836 50.4317H283.836C290.731 48.737 298.022 50.3059 303.61 54.6866C309.198 59.0673 312.462 65.7734 312.462 72.8736L312.462 72.8736Z" fill="#00CC99"/>
<path d="M282.593 45.4138C282.593 45.4138 284.278 52.6852 279.418 55.6225C278.637 56.1061 278.161 56.958 278.158 57.8763C278.112 61.5565 277.316 70.0626 270.863 68.9126C265.59 67.973 267.096 58.9675 268.845 52.6548C269.941 48.7092 270.389 44.6118 270.171 40.5226C269.709 31.9175 271.203 17.1956 287.187 18.8755C289.558 19.0946 291.846 19.8668 293.865 21.1302C297.999 23.7914 302.616 29.7133 293.108 41.2932" stroke="black" stroke-width="1.5"/>
<path d="M275.939 32.1227C275.939 32.1227 286.776 34.2266 288.449 27.5914C288.449 27.5914 289.285 32.2914 292.022 33.259" stroke="black" stroke-width="1.5"/>
<path d="M287.953 268.616L304.502 109.57" stroke="black" stroke-width="1.5"/>
<path d="M267.217 60.592C267.217 60.592 225.31 100.461 233.401 123.418C241.493 146.376 287.654 112.715 286.097 102.682L284.524 97.8077C284.524 97.8077 290.718 89.0877 287.953 90.706C285.188 92.3244 260.482 102.358 260.482 102.358L269.005 91.677" stroke="black" stroke-width="1.5"/>
<path d="M259.044 127.601V144C269.474 137.308 280.488 112.538 280.489 112.538C275.283 117.957 267.156 123.893 259.044 127.601Z" fill="black"/>
<path d="M291.769 50.5716C291.769 50.5716 313.994 49.277 327.156 55.7503L319.388 32.3978C319.388 32.3978 312.052 27.052 317.231 26.1889C317.231 26.1889 315.073 20.3629 316.583 20.5787C318.094 20.7945 345.929 38.3671 348.087 60.5921C350.244 82.817 312.462 82.2908 312.462 82.2908" stroke="black" stroke-width="1.5"/>
<path d="M416 15.5581C387.589 15.5581 364.558 38.5896 364.558 67.0003C364.558 95.411 387.589 118.442 416 118.442C444.411 118.442 467.442 95.411 467.442 67.0003H416V15.5581Z" fill="#A65CCC"/>
<path d="M364.558 67.0004C364.558 95.4111 387.589 118.443 416 118.443C444.411 118.443 467.442 95.4111 467.442 67.0004" stroke="black" stroke-width="1.5"/>
<path d="M467.442 67.0004H416L457.402 97.5325C463.939 88.6963 467.459 77.9915 467.442 67.0004Z" fill="black"/>
<path d="M416 0.000488281V67.0004H483C483 49.2309 475.941 32.1892 463.376 19.6243C450.811 7.05937 433.77 0.000482916 416 0.000488281Z" fill="#00CC99"/>
<path d="M416 67.0004H483" stroke="black" stroke-width="1.5"/>
<path fill-rule="evenodd" clip-rule="evenodd" d="M438.612 129.078L457.134 147.6H450.574V169.721H426.65V147.6H420.09L438.612 129.078Z" fill="#00CC99"/>
<path fill-rule="evenodd" clip-rule="evenodd" d="M438.612 183L457.134 201.522H450.574V223.644H426.65V201.522H420.09L438.612 183Z" fill="#A65CCC"/>
<path fill-rule="evenodd" clip-rule="evenodd" d="M438.612 237L457.134 255.522H450.574V277.644H426.65V255.522H420.09L438.612 237Z" fill="#660099"/>
<path d="M110.417 104.546L69.7778 101.874L59.2529 143.385L35.0893 275.103H67.979L64.1484 268.239L110.417 104.546Z" fill="#EDEEEF"/>
<path d="M115.705 267.837L117.703 192.884L85.7236 198.881L93.1486 275.103H120.48L115.705 267.837Z" fill="#E2E2E2"/>
<path d="M105.903 195.097L85.7238 198.881L86.6144 208.024C103.406 205.758 114.97 201.249 114.97 201.249L105.903 195.097Z" fill="black"/>
<path d="M65.8173 167.901C65.8173 167.901 60.7298 169.47 53.9979 172.03L47.4952 207.477C59.3493 209.64 70.8927 209.632 80.9854 208.671L88.2142 183.096L65.8173 167.901Z" fill="black"/>
<path d="M65.8173 105.364L25.795 188.354C25.795 188.354 73.2626 213.337 120.48 199.846V113.905L65.8173 105.364Z" fill="#1A0067"/>
<path d="M80.7081 22.6272V28.7839C80.7081 33.5445 83.9581 37.6901 88.5812 38.8263L98.3786 41.2344V17.1628L90.2321 15.1605C87.9381 14.5967 85.5122 15.1187 83.6531 16.5762C81.794 18.0337 80.7081 20.2648 80.7081 22.6271V22.6272Z" fill="#EDEEEF"/>
<path d="M80.7081 28.7838C80.7081 33.5444 83.9581 37.69 88.5812 38.8263L98.3786 41.2343" stroke="black" stroke-width="1.5" stroke-linecap="round" stroke-linejoin="round"/>
<path d="M90.69 27.5622C90.9509 27.5622 91.1625 27.3507 91.1625 27.0898C91.1625 26.8288 90.9509 26.6173 90.69 26.6173C90.4291 26.6173 90.2175 26.8288 90.2175 27.0898C90.2175 27.3507 90.4291 27.5622 90.69 27.5622Z" fill="black"/>
<path d="M83.4332 27.5622C83.6942 27.5622 83.9057 27.3507 83.9057 27.0898C83.9057 26.8288 83.6942 26.6173 83.4332 26.6173C83.1723 26.6173 82.9608 26.8288 82.9608 27.0898C82.9608 27.3507 83.1723 27.5622 83.4332 27.5622Z" fill="black"/>
<path d="M85.5621 29.9081V22.6271H81.9144" stroke="black" stroke-width="1.5" stroke-linecap="round" stroke-linejoin="round"/>
<path d="M91.5801 22.6271H87.9325" stroke="black" stroke-width="1.5" stroke-linecap="round" stroke-linejoin="round"/>
<path d="M97.2148 26.3578V28.8863C98.5787 28.8863 99.6843 27.7806 99.6843 26.4167C99.6843 26.3409 99.681 26.266 99.6743 26.1919C99.5359 24.6584 97.2148 24.818 97.2148 26.3578Z" fill="#EDEEEF"/>
<path d="M97.2148 28.8862C98.5787 28.8862 99.6843 27.7806 99.6843 26.4166" stroke="black" stroke-width="1.5" stroke-linecap="round" stroke-linejoin="round"/>
<path d="M87.5565 30.759C87.8632 31.0657 88.2792 31.238 88.7129 31.238C89.1466 31.238 89.5625 31.0657 89.8692 30.759" stroke="#BA0065" stroke-width="1.5" stroke-linecap="round" stroke-linejoin="round"/>
<path d="M85.5622 29.9141L87.1575 30.3062" stroke="black" stroke-width="1.5" stroke-linecap="round" stroke-linejoin="round"/>
<path d="M83.9057 37.4837L83.6252 37.6114C81.8082 38.4406 79.6917 38.2713 78.0296 37.1638C76.3676 36.0563 75.3964 34.1681 75.4622 32.172C75.7822 22.9874 77.9424 10.2449 87.5566 11.1569C87.5566 11.1569 97.3232 8.91856 101.237 17.9128C105.152 26.9071 100.35 31.2377 98.3787 32.237" stroke="black" stroke-width="1.5" stroke-linecap="round" stroke-linejoin="round"/>
<path d="M80.5005 25.1191C80.5005 25.1191 87.8755 23.8257 88.7129 18.8844C88.7129 18.8844 92.3664 25.0045 97.4646 25.5948" stroke="black" stroke-width="1.5" stroke-linecap="round" stroke-linejoin="round"/>
<path d="M65.8173 66.7774V105.364L120.48 118.799V75.8243C120.48 60.5862 110.077 47.3168 95.2794 43.6798H95.2794C88.1829 41.9356 80.6786 43.5504 74.9276 48.0591C69.1766 52.5677 65.8173 59.4698 65.8173 66.7774V66.7774Z" fill="#A65CCC"/>
<path d="M25.795 188.354C25.795 188.354 73.2626 213.337 120.48 199.846" stroke="black" stroke-width="1.5" stroke-linecap="round" stroke-linejoin="round"/>
<path d="M105.81 48.3279C105.81 48.3279 132.593 67.0564 132.694 94.9471C132.84 135.477 69.892 98.9445 67.8547 92.2821L65.8174 85.6197C65.8174 85.6197 57.4085 82.1567 59.4072 80.8901C61.4059 79.6235 120.48 92.171 120.48 92.171" stroke="black" stroke-width="1.5" stroke-linecap="round" stroke-linejoin="round"/>
<path d="M75.4585 48.3279C75.4585 48.3279 60.0735 59.3031 53.7442 87.9515C53.7442 87.9515 43.4174 73.6451 39.7531 68.1397C36.0888 62.6343 33.0907 66.2987 33.0907 66.2987C33.0907 66.2987 28.8261 59.9694 25.795 62.6343C22.7639 65.2993 30.8718 111.003 60.4631 116.467" stroke="black" stroke-width="1.5" stroke-linecap="round" stroke-linejoin="round"/>
<path d="M62.9823 84.3757L1 53.8622" stroke="black" stroke-width="1.5" stroke-linecap="round" stroke-linejoin="round"/>
</svg>

