<svg width="207" height="45" viewBox="0 0 207 45" fill="none" xmlns="http://www.w3.org/2000/svg">
<path d="M79.4016 12.0947C79.5612 12.3981 79.657 12.6695 79.689 12.909C79.7209 13.1485 79.7369 13.4998 79.7369 13.9629V30.7127C79.7369 32.1018 79.3537 32.9162 78.5873 33.1557C78.2041 33.2834 77.7251 33.3313 77.1343 33.3313C76.5436 33.3313 76.0965 33.2834 75.7452 33.1876C75.4099 33.0918 75.1385 32.9641 74.9629 32.8204C74.7872 32.6766 74.6435 32.485 74.5477 32.2136C74.4519 31.8783 74.404 31.3514 74.404 30.6488V20.5414C73.8931 21.1642 73.1746 22.1541 72.2007 23.5114C71.2427 24.8686 70.62 25.7149 70.3645 26.0661C70.109 26.4015 69.9175 26.641 69.8217 26.7687C69.7259 26.8965 69.4704 27.0881 69.0872 27.3116C68.688 27.5351 68.2729 27.6629 67.8258 27.6629C67.3788 27.6629 66.9636 27.5511 66.5964 27.3435C66.2292 27.136 65.9577 26.9284 65.7981 26.7208L65.5586 26.3855C65.1594 25.8905 64.3611 24.8047 63.1796 23.1761C61.998 21.5314 61.3434 20.6532 61.2476 20.5414V30.7127C61.2476 31.1757 61.2317 31.527 61.1997 31.7505C61.1678 31.99 61.072 32.2455 60.9123 32.517C60.609 33.0599 59.8266 33.3313 58.5653 33.3313C57.3358 33.3313 56.5694 33.0599 56.2661 32.517C56.1064 32.2296 56.0106 31.9741 55.9787 31.7346C55.9467 31.4951 55.9308 31.1278 55.9308 30.6488V13.915C55.9308 13.4519 55.9467 13.1006 55.9787 12.8771C56.0106 12.6535 56.1064 12.3821 56.2661 12.0787C56.5694 11.5518 57.3518 11.2963 58.6131 11.2963C59.156 11.2963 59.619 11.3602 60.0182 11.4879C60.4174 11.6157 60.6728 11.7594 60.7846 11.9031L60.9602 12.0787L67.8099 21.0684C71.2267 16.5496 73.5099 13.5637 74.6595 12.1107C74.9948 11.5678 75.8091 11.2963 77.0864 11.2963C78.3478 11.2804 79.1301 11.5518 79.4016 12.0947Z" fill="white"/>
<path d="M97.4757 23.5079C97.4757 24.7374 97.1723 25.6635 96.5497 26.2543C95.9429 26.8451 95.2564 27.1485 94.5059 27.1485H87.353C87.353 27.7073 87.6883 28.1863 88.3429 28.5696C89.0135 28.9528 89.6681 29.1444 90.3387 29.1444C91.5043 29.1444 92.4143 29.0166 93.0849 28.7771L93.4202 28.6494C93.8992 28.4259 94.2984 28.3141 94.6337 28.3141C95.2723 28.3141 95.8312 28.7612 96.2942 29.6713C96.5497 30.2142 96.6934 30.6772 96.6934 31.0605C96.6934 32.8488 94.5539 33.743 90.2748 33.743C88.7899 33.743 87.4647 33.4875 86.3151 32.9766C85.1655 32.4656 84.2555 31.779 83.6168 30.9327C82.3554 29.3041 81.7168 27.4838 81.7168 25.4719C81.7168 22.9331 82.5311 20.9052 84.1756 19.3883C85.8202 17.8714 87.8639 17.105 90.3068 17.105C93.1009 17.105 95.1606 18.095 96.4539 20.0589C97.1404 21.1447 97.4757 22.2784 97.4757 23.5079ZM91.1051 24.4021C91.8715 24.4021 92.2547 24.0827 92.2547 23.444C92.2547 22.981 92.079 22.6137 91.7278 22.3263C91.3765 22.0389 90.8656 21.9112 90.2269 21.9112C89.5883 21.9112 88.9177 22.1826 88.279 22.7095C87.6404 23.2365 87.321 23.8113 87.321 24.418H91.1051V24.4021Z" fill="white"/>
<path d="M106.497 33.3122C104.469 33.3122 102.777 32.5458 101.451 30.997C100.11 29.4641 99.4396 27.58 99.4396 25.3765V20.0913C99.4396 19.6122 99.4555 19.261 99.4875 19.0374C99.5194 18.8139 99.5992 18.5584 99.7429 18.255C100.03 17.7121 100.813 17.4407 102.09 17.4407C103.495 17.4407 104.325 17.8239 104.565 18.5903C104.693 18.9097 104.74 19.4206 104.74 20.1232V25.4084C104.74 26.2387 104.98 26.8774 105.443 27.3405C105.922 27.8035 106.545 28.027 107.343 28.027C108.141 28.027 108.78 27.7875 109.275 27.3085C109.77 26.8295 110.009 26.1908 110.009 25.4084V20.0753C110.009 19.6122 110.025 19.261 110.057 19.0374C110.089 18.8139 110.185 18.5424 110.345 18.239C110.6 17.7121 111.383 17.4566 112.66 17.4566C113.921 17.4566 114.704 17.7281 114.975 18.271C115.119 18.5744 115.199 18.8458 115.23 19.0693C115.262 19.3089 115.278 19.6442 115.278 20.1072V30.7894C115.278 31.2365 115.262 31.5718 115.23 31.7953C115.199 32.0189 115.103 32.2903 114.943 32.5618C114.64 33.0887 113.873 33.3442 112.628 33.3442C111.398 33.3442 110.648 33.1047 110.361 32.6257C110.153 32.2903 110.057 31.8752 110.057 31.3962C109.977 31.5399 109.802 31.7315 109.514 32.0029C109.227 32.2584 108.956 32.4819 108.7 32.6736C108.046 33.0887 107.295 33.3122 106.497 33.3122Z" fill="white"/>
<path d="M141.671 15.7159C142.198 16.7857 142.453 17.9673 142.453 19.2766C142.453 20.5859 142.198 21.7675 141.671 22.8214C141.144 23.8752 140.474 24.7215 139.643 25.3442C137.967 26.6376 136.242 27.2763 134.454 27.2763H130.686V30.6933C130.686 31.1564 130.67 31.5076 130.638 31.7312C130.606 31.9547 130.51 32.2262 130.351 32.5295C130.063 33.0724 129.281 33.3439 128.004 33.3439C126.599 33.3439 125.768 32.9766 125.529 32.2262C125.401 31.8909 125.353 31.3639 125.353 30.6614V13.9116C125.353 13.4485 125.369 13.0972 125.401 12.8737C125.433 12.6501 125.529 12.3787 125.689 12.0753C125.976 11.5324 126.758 11.261 128.036 11.261H134.486C136.258 11.261 137.967 11.8997 139.643 13.193C140.474 13.7998 141.144 14.6461 141.671 15.7159ZM136.274 21.2725C136.865 20.8255 137.153 20.1708 137.153 19.2766C137.153 18.3984 136.865 17.7278 136.274 17.2647C135.684 16.8176 135.093 16.5781 134.47 16.5781H130.702V21.9112H134.502C135.093 21.9272 135.684 21.7037 136.274 21.2725Z" fill="white"/>
<path d="M146.493 19.4522C148.185 17.8874 150.117 17.105 152.289 17.105C154.46 17.105 156.376 17.8874 158.053 19.4362C159.729 21.001 160.559 22.981 160.559 25.392C160.559 27.0686 160.128 28.5376 159.266 29.847C158.404 31.1403 157.35 32.0984 156.121 32.7051C154.891 33.3119 153.598 33.6312 152.273 33.6312C150.948 33.6312 149.654 33.3119 148.409 32.6572C147.164 32.0025 146.11 31.0445 145.264 29.7671C144.401 28.4897 143.986 27.0527 143.986 25.44C143.954 23.0129 144.8 21.033 146.493 19.4522ZM150.261 27.5955C150.9 28.0905 151.554 28.3301 152.225 28.3301C152.896 28.3301 153.55 28.0746 154.221 27.5796C154.891 27.0846 155.211 26.3341 155.211 25.3441C155.211 24.3542 154.891 23.6197 154.269 23.1407C153.646 22.6616 152.975 22.4221 152.241 22.4221C151.522 22.4221 150.836 22.6776 150.213 23.1726C149.59 23.6835 149.271 24.418 149.271 25.392C149.303 26.3661 149.622 27.1006 150.261 27.5955Z" fill="white"/>
<path d="M162.635 31.9551C162.252 31.7156 162.06 31.3323 162.06 30.8054C162.06 30.2785 162.444 29.4961 163.21 28.4263C163.433 28.091 163.785 27.9153 164.28 27.9153C164.775 27.9153 165.445 28.1548 166.291 28.6498C167.138 29.1448 167.904 29.3843 168.591 29.3843C169.82 29.3843 170.427 29.1448 170.427 28.6658C170.427 28.2826 169.756 27.9952 168.399 27.8195C167.138 27.6439 165.876 27.1649 164.631 26.3984C164.04 26.0312 163.561 25.4723 163.178 24.6899C162.795 23.9235 162.603 22.9974 162.603 21.9276C162.603 18.7501 164.791 17.1533 169.149 17.1533C170.57 17.1533 172.039 17.4886 173.556 18.1752C174.259 18.4946 174.61 18.8938 174.61 19.3888C174.61 19.8678 174.386 20.4586 173.939 21.1611C173.492 21.8637 173.045 22.215 172.582 22.215C172.343 22.215 171.896 22.0713 171.241 21.7679C170.586 21.4645 169.884 21.3208 169.118 21.3208C167.936 21.3208 167.345 21.5443 167.345 21.9914C167.345 22.5982 168.032 22.9814 169.389 23.173C170.714 23.3167 172.007 23.6999 173.253 24.3227C173.844 24.6101 174.323 25.0891 174.722 25.7917C175.121 26.4783 175.313 27.3565 175.313 28.3944C175.313 29.4482 175.121 30.3264 174.722 31.0609C174.323 31.7954 173.78 32.3383 173.077 32.7055C171.784 33.3283 170.171 33.6476 168.239 33.6476C166.291 33.6316 164.423 33.0728 162.635 31.9551Z" fill="white"/>
<path d="M186.01 22.8051L184.046 22.6774V26.8449C184.046 27.3878 184.126 27.7869 184.302 28.0265C184.477 28.266 184.797 28.3937 185.26 28.3937C185.739 28.3937 186.09 28.4097 186.345 28.4416C186.601 28.4735 186.856 28.5693 187.144 28.729C187.607 28.9845 187.83 29.6711 187.83 30.7569C187.83 32.0183 187.543 32.8007 186.984 33.0721C186.681 33.2159 186.409 33.2957 186.186 33.3276C185.946 33.3596 185.611 33.3755 185.18 33.3755C183.088 33.3755 181.492 32.8965 180.406 31.9544C179.32 31.0124 178.777 29.4156 178.777 27.1642V22.6934C178.394 22.7572 177.979 22.7892 177.548 22.7892C177.101 22.7892 176.734 22.6135 176.446 22.2782C176.159 21.9429 176.015 21.3521 176.015 20.5218C176.015 19.6915 176.063 19.1007 176.159 18.7334C176.255 18.3662 176.398 18.0948 176.574 17.9351C176.893 17.6796 177.292 17.5359 177.787 17.5359L178.777 17.6636V14.55C178.777 14.0869 178.793 13.7516 178.825 13.5281C178.857 13.3045 178.953 13.065 179.113 12.8096C179.368 12.3146 180.15 12.0591 181.428 12.0591C182.801 12.0591 183.615 12.4263 183.871 13.1768C183.966 13.4961 184.014 14.0071 184.014 14.7097V17.6636C184.892 17.5838 185.563 17.5359 186.026 17.5359C186.473 17.5359 186.824 17.5519 187.048 17.5838C187.271 17.6157 187.543 17.7115 187.846 17.8712C188.373 18.1267 188.629 18.9091 188.629 20.1865C188.629 21.4479 188.357 22.2303 187.814 22.5017C187.511 22.6455 187.239 22.7253 187.016 22.7572C186.824 22.7892 186.473 22.8051 186.01 22.8051Z" fill="white"/>
<path d="M192.397 19.4522C194.089 17.8874 196.021 17.105 198.193 17.105C200.364 17.105 202.28 17.8874 203.956 19.4362C205.633 21.001 206.463 22.981 206.463 25.392C206.463 27.0686 206.032 28.5376 205.17 29.847C204.308 31.1403 203.254 32.0984 202.025 32.7051C200.795 33.3119 199.502 33.6312 198.177 33.6312C196.851 33.6312 195.558 33.3119 194.313 32.6572C193.067 32.0025 192.013 31.0445 191.167 29.7671C190.305 28.4897 189.89 27.0527 189.89 25.44C189.874 23.0129 190.72 21.033 192.397 19.4522ZM196.181 27.5955C196.819 28.0905 197.474 28.3301 198.145 28.3301C198.815 28.3301 199.47 28.0746 200.14 27.5796C200.811 27.0846 201.13 26.3341 201.13 25.3441C201.13 24.3542 200.811 23.6197 200.188 23.1407C199.566 22.6616 198.895 22.4221 198.161 22.4221C197.426 22.4221 196.756 22.6776 196.133 23.1726C195.51 23.6835 195.191 24.418 195.191 25.392C195.207 26.3661 195.526 27.1006 196.181 27.5955Z" fill="white"/>
<path d="M42.934 4.52232L34.36 1.80786L33.913 12.9212C34.2004 13.2086 34.36 13.959 34.36 14.454V24.4017C34.36 24.8967 34.2323 25.3598 34.0088 25.7749L45.0576 32.2098C45.5366 31.3635 45.808 30.3895 45.808 29.3676V9.48817C45.792 7.44435 44.7063 5.54423 42.934 4.52232Z" fill="white" fill-opacity="0.9"/>
<path d="M2.87398 4.52232L11.448 1.80786L11.8951 12.9212C11.6077 13.2086 11.448 13.959 11.448 14.454V24.4017C11.448 24.8967 11.5757 25.3598 11.7993 25.7749L0.750419 32.2098C0.271423 31.3635 0 30.3895 0 29.3676V9.48817C0 7.44435 1.08572 5.54423 2.87398 4.52232Z" fill="white" fill-opacity="0.9"/>
<path d="M33.9927 25.7593C33.7372 26.2064 33.37 26.5896 32.9229 26.861L24.3489 31.8269C23.9019 32.0824 23.4069 32.2101 22.9119 32.2101C22.417 32.2101 21.922 32.0824 21.4749 31.8269L12.9009 26.861C12.4379 26.5896 12.0706 26.2064 11.8312 25.7593L0.782318 32.1782C1.18148 32.8807 1.72434 33.5035 2.39493 33.9825L20.5649 44.489C21.3153 44.8243 22.1296 45 22.9279 45C23.7422 45 24.5405 44.8243 25.2909 44.489L43.4608 33.9825C44.1314 33.5035 44.6743 32.8807 45.0735 32.1782L33.9927 25.7593Z" fill="white"/>
<path d="M42.9341 4.52276L35.5735 0.275437C34.7911 -0.0918125 33.897 -0.0918125 33.1146 0.275437L33.0029 0.32334C32.9709 0.339307 32.939 0.355275 32.9071 0.371243L24.333 5.3371C23.886 5.59258 23.391 5.72032 22.8961 5.72032C22.4011 5.72032 21.9061 5.59258 21.4591 5.3371L12.885 0.371243C12.8531 0.355275 12.8212 0.339307 12.7892 0.32334L12.6775 0.275437C11.8951 -0.0918125 11.001 -0.0918125 10.2186 0.275437L2.85806 4.52276C1.9799 5.03372 1.26141 5.76822 0.766449 6.61449L21.1876 18.3984C21.6666 18.7178 22.2574 18.9094 22.8801 18.9094H22.8961C23.5188 18.9094 24.1095 18.7178 24.5885 18.3984L45.0097 6.61449C44.5307 5.75225 43.8282 5.03372 42.9341 4.52276Z" fill="white"/>
</svg>

