<svg width="161" height="35" viewBox="0 0 161 35" fill="none" xmlns="http://www.w3.org/2000/svg">
<path d="M61.7348 9.41523C61.8589 9.65105 61.9334 9.86205 61.9582 10.0482C61.9831 10.2344 61.9955 10.5075 61.9955 10.8674V23.8873C61.9955 24.9671 61.6975 25.6001 61.1017 25.7863C60.8037 25.8856 60.4313 25.9229 59.972 25.9229C59.5127 25.9229 59.1651 25.8856 58.892 25.8111C58.6313 25.7367 58.4202 25.6374 58.2837 25.5257C58.1471 25.414 58.0354 25.265 57.9609 25.054C57.8864 24.7934 57.8492 24.3838 57.8492 23.8377V15.981C57.4519 16.4651 56.8933 17.2346 56.1361 18.2896C55.3788 19.3446 54.9071 20.0024 54.7085 20.2755C54.5098 20.5362 54.3609 20.7223 54.2864 20.8216C54.2119 20.9209 54.0133 21.0699 53.7153 21.2436C53.405 21.4174 53.0822 21.5167 52.7346 21.5167C52.387 21.5167 52.0643 21.4298 51.7788 21.2684C51.4932 21.1071 51.2822 20.9457 51.1581 20.7844L50.9718 20.5237C50.6615 20.139 50.0408 19.295 49.1222 18.029C48.2035 16.7506 47.6946 16.0679 47.6201 15.981V23.8873C47.6201 24.2473 47.6077 24.5203 47.5828 24.6941C47.558 24.8803 47.4835 25.0789 47.3594 25.2899C47.1235 25.7119 46.5152 25.9229 45.5345 25.9229C44.5786 25.9229 43.9828 25.7119 43.7469 25.2899C43.6228 25.0664 43.5483 24.8679 43.5235 24.6817C43.4986 24.4955 43.4862 24.21 43.4862 23.8377V10.8178C43.4862 10.4578 43.4986 10.1848 43.5235 10.011C43.5483 9.83722 43.6228 9.62622 43.7469 9.3904C43.9828 8.98081 44.5911 8.78223 45.5718 8.78223C45.9938 8.78223 46.3538 8.83188 46.6642 8.93117C46.9745 9.03046 47.1732 9.14217 47.2601 9.25387L47.3966 9.3904L52.7222 16.3782C55.3788 12.8657 57.154 10.5447 58.0478 9.41523C58.3085 8.99323 58.9416 8.78223 59.9347 8.78223C60.9154 8.78223 61.5237 8.99323 61.7348 9.41523Z" fill="#660098"/>
<path d="M75.7874 18.2862C75.7874 19.2419 75.5516 19.9618 75.0674 20.421C74.5957 20.8803 74.0619 21.1161 73.4784 21.1161H67.917C67.917 21.5505 68.1776 21.9229 68.6866 22.2208C69.208 22.5186 69.717 22.6676 70.2384 22.6676C71.1446 22.6676 71.8522 22.5683 72.3736 22.3821L72.6343 22.2828C73.0067 22.1091 73.317 22.0222 73.5777 22.0222C74.0743 22.0222 74.5088 22.3697 74.8688 23.0772C75.0674 23.4992 75.1791 23.8591 75.1791 24.157C75.1791 25.5471 73.5157 26.2422 70.1887 26.2422C69.0342 26.2422 68.0038 26.0436 67.11 25.6464C66.2162 25.2492 65.5086 24.7155 65.0121 24.0577C64.0314 22.7917 63.5348 21.3768 63.5348 19.8129C63.5348 17.8394 64.1679 16.2631 65.4466 15.084C66.7252 13.9048 68.3142 13.3091 70.2135 13.3091C72.386 13.3091 73.9874 14.0786 74.9929 15.6053C75.5267 16.4369 75.7874 17.3305 75.7874 18.2862ZM70.8342 18.9813C71.4301 18.9813 71.728 18.733 71.728 18.2366C71.728 17.8766 71.5915 17.5912 71.3184 17.3677C71.0453 17.1443 70.648 17.045 70.1515 17.045C69.6425 17.045 69.1335 17.256 68.637 17.6656C68.1404 18.0752 67.8921 18.522 67.8921 18.9937H70.8342V18.9813Z" fill="#660098"/>
<path d="M82.8013 25.8966C81.2247 25.8966 79.9088 25.3008 78.8785 24.0969C77.8357 22.9054 77.3143 21.4409 77.3143 19.7281V15.6199C77.3143 15.2475 77.3267 14.9745 77.3515 14.8007C77.3764 14.627 77.4384 14.4284 77.5502 14.1926C77.7736 13.7706 78.3819 13.5596 79.375 13.5596C80.4675 13.5596 81.113 13.8574 81.2992 14.4532C81.3985 14.7014 81.4357 15.0986 81.4357 15.6447V19.7529C81.4357 20.3983 81.622 20.8947 81.982 21.2547C82.3544 21.6146 82.8385 21.7884 83.4592 21.7884C84.0799 21.7884 84.5765 21.6022 84.9613 21.2299C85.3462 20.8575 85.5324 20.3611 85.5324 19.7529V15.6075C85.5324 15.2475 85.5448 14.9745 85.5696 14.8007C85.5944 14.627 85.6689 14.416 85.7931 14.1801C85.9917 13.7706 86.6 13.572 87.5931 13.572C88.5738 13.572 89.1821 13.783 89.3931 14.205C89.5048 14.4408 89.5669 14.6518 89.5917 14.8255C89.6166 15.0117 89.629 15.2724 89.629 15.6323V23.9356C89.629 24.2831 89.6166 24.5437 89.5917 24.7175C89.5669 24.8912 89.4924 25.1022 89.3683 25.3132C89.1324 25.7228 88.5366 25.9214 87.5683 25.9214C86.6124 25.9214 86.0289 25.7352 85.8055 25.3629C85.6441 25.1022 85.5696 24.7795 85.5696 24.4072C85.5075 24.5189 85.371 24.6678 85.1475 24.8788C84.9241 25.0774 84.713 25.2512 84.5144 25.4001C84.0054 25.7228 83.422 25.8966 82.8013 25.8966Z" fill="#660098"/>
<path d="M110.149 12.2292C110.559 13.0608 110.758 13.9793 110.758 14.997C110.758 16.0148 110.559 16.9333 110.149 17.7525C109.74 18.5716 109.218 19.2295 108.573 19.7135C107.269 20.7189 105.929 21.2154 104.538 21.2154H101.608V23.8591C101.608 24.219 101.596 24.4921 101.571 24.6658C101.546 24.8396 101.472 25.0506 101.348 25.2864C101.124 25.7084 100.516 25.9194 99.5229 25.9194C98.4305 25.9194 97.785 25.634 97.5987 25.0506C97.4994 24.79 97.4622 24.3804 97.4622 23.8342V10.8143C97.4622 10.4543 97.4746 10.1813 97.4994 10.0075C97.5243 9.83373 97.5987 9.62273 97.7229 9.38691C97.9463 8.96491 98.5546 8.75391 99.5477 8.75391H104.563C105.941 8.75391 107.269 9.25038 108.573 10.2557C109.218 10.7398 109.74 11.3976 110.149 12.2292ZM105.953 16.5361C106.413 16.1886 106.636 15.6797 106.636 14.9846C106.636 14.302 106.413 13.7807 105.953 13.4207C105.494 13.0732 105.035 12.887 104.551 12.887H101.621V17.0326H104.575C105.035 17.0574 105.494 16.8836 105.953 16.5361Z" fill="#660098"/>
<path d="M113.898 15.1336C115.214 13.9173 116.716 13.3091 118.405 13.3091C120.093 13.3091 121.583 13.9173 122.886 15.1212C124.189 16.3376 124.835 17.8766 124.835 19.7508C124.835 21.054 124.5 22.1959 123.829 23.2137C123.159 24.219 122.34 24.9637 121.384 25.4354C120.428 25.907 119.423 26.1553 118.392 26.1553C117.362 26.1553 116.356 25.907 115.388 25.3982C114.42 24.8893 113.6 24.1446 112.942 23.1516C112.272 22.1587 111.949 21.0416 111.949 19.788C111.924 17.9014 112.582 16.35 113.898 15.1336ZM116.828 21.4512C117.325 21.836 117.834 22.0222 118.355 22.0222C118.876 22.0222 119.385 21.8236 119.907 21.4388C120.428 21.054 120.676 20.4707 120.676 19.7011C120.676 18.9316 120.428 18.3607 119.944 17.9883C119.46 17.616 118.938 17.4298 118.367 17.4298C117.809 17.4298 117.275 17.6284 116.791 18.0131C116.307 18.4103 116.058 18.9813 116.058 19.7384C116.083 20.4955 116.331 21.0664 116.828 21.4512Z" fill="#660098"/>
<path d="M126.449 24.8406C126.151 24.6544 126.002 24.3566 126.002 23.947C126.002 23.5374 126.3 22.9292 126.896 22.0976C127.07 21.837 127.343 21.7004 127.728 21.7004C128.112 21.7004 128.634 21.8866 129.292 22.2714C129.95 22.6562 130.545 22.8423 131.079 22.8423C132.035 22.8423 132.507 22.6561 132.507 22.2838C132.507 21.9859 131.985 21.7625 130.93 21.626C129.95 21.4894 128.969 21.1171 128.001 20.5213C127.541 20.2359 127.169 19.8015 126.871 19.1933C126.573 18.5975 126.424 17.8776 126.424 17.0461C126.424 14.5761 128.125 13.335 131.514 13.335C132.619 13.335 133.761 13.5956 134.94 14.1293C135.486 14.3775 135.759 14.6878 135.759 15.0726C135.759 15.445 135.586 15.9042 135.238 16.4503C134.89 16.9964 134.543 17.2695 134.183 17.2695C133.997 17.2695 133.649 17.1578 133.14 16.9219C132.631 16.6861 132.085 16.5744 131.489 16.5744C130.57 16.5744 130.111 16.7482 130.111 17.0957C130.111 17.5674 130.645 17.8652 131.7 18.0142C132.73 18.1259 133.736 18.4238 134.704 18.9078C135.163 19.1312 135.536 19.5036 135.846 20.0497C136.157 20.5834 136.306 21.266 136.306 22.0728C136.306 22.892 136.157 23.5746 135.846 24.1456C135.536 24.7165 135.114 25.1385 134.568 25.424C133.562 25.908 132.308 26.1562 130.806 26.1562C129.292 26.1562 127.839 25.7218 126.449 24.8406Z" fill="#660098"/>
<path d="M144.623 17.7398L143.096 17.6405V20.8798C143.096 21.3018 143.158 21.612 143.295 21.7982C143.431 21.9844 143.68 22.0837 144.04 22.0837C144.412 22.0837 144.685 22.0961 144.884 22.1209C145.082 22.1457 145.281 22.2202 145.504 22.3443C145.864 22.5429 146.038 23.0766 146.038 23.9205C146.038 24.901 145.815 25.5091 145.38 25.7201C145.144 25.8318 144.933 25.8939 144.76 25.9187C144.573 25.9435 144.313 25.9559 143.977 25.9559C142.351 25.9559 141.122 25.5836 140.266 24.8513C139.422 24.1191 138.999 22.878 138.999 21.128V17.6529C138.702 17.7025 138.379 17.7274 138.044 17.7274C137.696 17.7274 137.41 17.5908 137.187 17.3302C136.964 17.0696 136.852 16.6104 136.852 15.965C136.852 15.3196 136.889 14.8604 136.964 14.5749C137.038 14.2895 137.15 14.0785 137.286 13.9544C137.535 13.7558 137.845 13.6441 138.23 13.6441L138.999 13.7434V11.3232C138.999 10.9633 139.012 10.7027 139.037 10.5289C139.062 10.3552 139.136 10.169 139.26 9.97041C139.459 9.58566 140.067 9.38708 141.06 9.38708C142.128 9.38708 142.761 9.67254 142.96 10.2559C143.034 10.5041 143.071 10.9012 143.071 11.4473V13.7434C143.754 13.6813 144.275 13.6441 144.635 13.6441C144.995 13.6441 145.256 13.6565 145.43 13.6813C145.604 13.7062 145.815 13.7806 146.051 13.9047C146.46 14.1033 146.659 14.7115 146.659 15.7043C146.659 16.6848 146.448 17.293 146.026 17.504C145.79 17.6157 145.579 17.6777 145.405 17.7025C145.256 17.7274 144.983 17.7398 144.623 17.7398Z" fill="#660098"/>
<path d="M149.601 15.1336C150.917 13.9173 152.419 13.3091 154.107 13.3091C155.796 13.3091 157.285 13.9173 158.589 15.1212C159.892 16.3376 160.538 17.8766 160.538 19.7508C160.538 21.054 160.203 22.1959 159.532 23.2137C158.862 24.219 158.042 24.9637 157.087 25.4354C156.131 25.907 155.125 26.1553 154.095 26.1553C153.064 26.1553 152.059 25.907 151.091 25.3982C150.122 24.8893 149.303 24.1446 148.645 23.1516C147.975 22.1587 147.652 21.0416 147.652 19.788C147.627 17.9014 148.285 16.35 149.601 15.1336ZM152.531 21.4512C153.027 21.836 153.536 22.0222 154.058 22.0222C154.579 22.0222 155.088 21.8236 155.609 21.4388C156.131 21.054 156.379 20.4707 156.379 19.7011C156.379 18.9316 156.131 18.3607 155.647 17.9883C155.162 17.616 154.641 17.4298 154.07 17.4298C153.511 17.4298 152.978 17.6284 152.493 18.0131C152.009 18.4103 151.761 18.9813 151.761 19.7384C151.773 20.4955 152.022 21.0664 152.531 21.4512Z" fill="#660098"/>
<path d="M33.3812 3.51608L26.7149 1.40601L26.3673 10.0449C26.5908 10.2683 26.7149 10.8517 26.7149 11.2365V18.9693C26.7149 19.354 26.6156 19.714 26.4418 20.0367L35.0323 25.0388C35.4047 24.381 35.6157 23.6238 35.6157 22.8295V7.38868C35.6157 5.78751 34.7592 4.31046 33.3812 3.51608Z" fill="#511C74"/>
<path d="M2.23452 3.5161L8.90083 1.40601L9.24842 10.045C9.02497 10.2684 8.90083 10.8518 8.90083 11.2365V18.9694C8.90083 19.3542 9.00014 19.7141 9.17394 20.0369L0.583457 25.0266C0.211038 24.3688 0 23.6116 0 22.8172V7.38873C0 5.78755 0.844151 4.31048 2.23452 3.5161Z" fill="#511C74"/>
<path d="M26.4294 20.0366C26.2308 20.3842 25.9453 20.682 25.5977 20.8931L18.9314 24.7532C18.5838 24.9518 18.1989 25.0511 17.8141 25.0511C17.4293 25.0511 17.0444 24.9518 16.6968 24.7532L10.0305 20.8931C9.67053 20.682 9.38501 20.3842 9.1988 20.0366L0.583496 25.0263C0.893846 25.5724 1.31592 26.0565 1.83731 26.4288L15.9644 34.596C16.5479 34.8566 17.181 34.9932 17.8017 34.9932C18.4348 34.9932 19.0555 34.8566 19.639 34.596L33.7661 26.4288C34.2875 26.0565 34.7095 25.5724 35.0199 25.0263L26.4294 20.0366Z" fill="#660098"/>
<path d="M33.3812 3.51589L27.6583 0.214119C27.0501 -0.0713729 26.3549 -0.0713729 25.7466 0.214119L25.6597 0.251357C25.6349 0.26377 25.61 0.276183 25.5852 0.288595L18.9189 4.14893C18.5713 4.34754 18.1865 4.44684 17.8016 4.44684C17.4168 4.44684 17.032 4.34754 16.6844 4.14893L10.0181 0.288595C9.99324 0.276183 9.96841 0.26377 9.94359 0.251357L9.85669 0.214119C9.2484 -0.0713729 8.55322 -0.0713729 7.94494 0.214119L2.22209 3.51589C1.53932 3.9131 0.980689 4.48408 0.595856 5.14195L16.4733 14.3025C16.8458 14.5508 17.3051 14.6997 17.7892 14.6997H17.8016C18.2858 14.6997 18.7451 14.5508 19.1175 14.3025L35.0074 5.15436C34.6226 4.48408 34.0764 3.9131 33.3812 3.51589Z" fill="#660098"/>
</svg>

