<svg width="182" height="40" viewBox="0 0 182 40" fill="none" xmlns="http://www.w3.org/2000/svg">
<path d="M71.0096 5.833C71.147 6.09836 71.2334 6.33494 71.2589 6.54275C71.2877 6.75056 71.3005 7.05748 71.3005 7.46031V22.0421C71.3005 23.2506 70.968 23.9603 70.2998 24.1681C69.9673 24.28 69.5485 24.3216 69.0338 24.3216C68.5191 24.3216 68.129 24.28 67.8253 24.1969C67.5344 24.1138 67.2978 24.0019 67.1443 23.8772C66.9909 23.7525 66.8662 23.5863 66.7831 23.3497C66.6999 23.0588 66.6584 22.5984 66.6584 21.9877V13.1894C66.214 13.7329 65.5874 14.5929 64.7401 15.7759C63.8929 16.9588 63.3654 17.6941 63.1416 18.001C62.9178 18.2919 62.7516 18.5029 62.6684 18.6116C62.5853 18.7235 62.3615 18.8898 62.029 19.0848C61.6805 19.2798 61.3193 19.3917 60.9324 19.3917C60.5456 19.3917 60.1811 19.2958 59.8614 19.1136C59.5417 18.9314 59.3051 18.7523 59.1677 18.5701L58.9599 18.2792C58.6114 17.8475 57.9176 16.9044 56.8882 15.4849C55.8587 14.0526 55.2896 13.2885 55.2065 13.1926V22.0485C55.2065 22.4513 55.1937 22.7582 55.1649 22.9533C55.1362 23.1611 55.053 23.3849 54.9156 23.6214C54.6502 24.0946 53.9692 24.3312 52.8727 24.3312C51.7761 24.3312 51.1366 24.0946 50.8713 23.6214C50.7338 23.3721 50.6475 23.1483 50.6219 22.9405C50.5932 22.7327 50.5804 22.413 50.5804 21.9941V7.40596C50.5804 7.00313 50.5932 6.69621 50.6219 6.50119C50.6507 6.30617 50.7338 6.06959 50.8713 5.80743C51.1366 5.35025 51.8176 5.12645 52.9142 5.12645C53.3874 5.12645 53.7902 5.1808 54.1387 5.2927C54.4872 5.4046 54.7078 5.52928 54.8069 5.65397L54.9603 5.80743L60.9228 13.6338C63.8961 9.70144 65.8847 7.10224 66.8854 5.8362C67.1763 5.36304 67.886 5.12645 68.9986 5.12645C70.1112 5.12645 70.7762 5.36304 71.0128 5.8362L71.0096 5.833Z" fill="#5D2684"/>
<path d="M86.7455 15.7727C86.7455 16.8437 86.4802 17.6494 85.9399 18.1641C85.4123 18.6788 84.8145 18.941 84.1623 18.941H77.9344C77.9344 19.4269 78.2254 19.8457 78.7976 20.1782C79.3827 20.5107 79.9518 20.6802 80.5336 20.6802C81.5471 20.6802 82.34 20.5683 82.925 20.3605L83.216 20.2486C83.6316 20.0536 83.9801 19.9576 84.271 19.9576C84.8273 19.9576 85.3132 20.3477 85.7161 21.1406C85.9399 21.6137 86.0646 22.0165 86.0646 22.349C86.0646 23.906 84.2007 24.6829 80.4761 24.6829C79.1845 24.6829 78.0303 24.4591 77.0297 24.0147C76.029 23.5703 75.2361 22.9725 74.6798 22.2339C73.5832 20.8177 73.0269 19.2319 73.0269 17.4799C73.0269 15.2708 73.7367 13.506 75.1658 12.1824C76.5981 10.862 78.3756 10.1938 80.5049 10.1938C82.9378 10.1938 84.7314 11.057 85.8567 12.7643C86.4546 13.6946 86.7455 14.6953 86.7455 15.7663V15.7727ZM81.1986 16.5496C81.8668 16.5496 82.1993 16.2714 82.1993 15.7151C82.1993 15.3123 82.0458 14.9926 81.7389 14.7432C81.432 14.4939 80.9876 14.382 80.4313 14.382C79.875 14.382 79.2932 14.6186 78.7369 15.0757C78.1806 15.5329 77.9025 16.0349 77.9025 16.5624H81.1954V16.5496H81.1986Z" fill="#5D2684"/>
<path d="M94.5975 24.2928C92.8327 24.2928 91.3589 23.6246 90.2047 22.2787C89.0378 20.9455 88.4527 19.3054 88.4527 17.3872V12.7866C88.4527 12.371 88.4655 12.0641 88.4943 11.8691C88.5231 11.674 88.5902 11.4534 88.7181 11.1881C88.9675 10.7149 89.6484 10.4783 90.761 10.4783C91.9823 10.4783 92.708 10.8108 92.9158 11.479C93.0277 11.7572 93.0693 12.2015 93.0693 12.8122V17.4127C93.0693 18.1353 93.2771 18.6916 93.6799 19.0944C94.0955 19.4972 94.639 19.6923 95.3328 19.6923C96.0266 19.6923 96.5828 19.4844 97.0145 19.0656C97.4461 18.65 97.6539 18.0937 97.6539 17.4127V12.7706C97.6539 12.3678 97.6667 12.0609 97.6954 11.8659C97.7242 11.6708 97.8073 11.4342 97.9448 11.1721C98.1686 10.7149 98.8464 10.4911 99.9589 10.4911C101.072 10.4911 101.737 10.7277 101.973 11.2009C102.098 11.4662 102.168 11.7028 102.197 11.8946C102.226 12.1024 102.238 12.3966 102.238 12.7994V22.0996C102.238 22.4897 102.226 22.7806 102.197 22.9756C102.168 23.1707 102.085 23.4072 101.948 23.6438C101.682 24.101 101.017 24.3248 99.9334 24.3248C98.8496 24.3248 98.2101 24.117 97.9608 23.6982C97.7785 23.4072 97.6954 23.046 97.6954 22.6272C97.6251 22.7518 97.4716 22.9181 97.2223 23.1547C96.9729 23.3785 96.7363 23.5703 96.5125 23.7397C95.9434 24.101 95.288 24.296 94.5943 24.296L94.5975 24.2928Z" fill="#5D2684"/>
<path d="M125.219 8.98855C125.676 9.9189 125.9 10.9483 125.9 12.0897C125.9 13.231 125.676 14.2573 125.219 15.1749C124.759 16.0924 124.177 16.8277 123.454 17.3712C121.993 18.4966 120.494 19.0529 118.937 19.0529H115.656V22.0134C115.656 22.4162 115.644 22.7231 115.615 22.9181C115.586 23.1132 115.503 23.3497 115.366 23.6119C115.116 24.0851 114.435 24.3216 113.323 24.3216C112.098 24.3216 111.376 24.0019 111.168 23.3497C111.056 23.0588 111.014 22.5984 111.014 21.9878V7.40601C111.014 7.00318 111.027 6.69626 111.056 6.50124C111.085 6.30622 111.168 6.06964 111.305 5.80748C111.555 5.33431 112.236 5.09773 113.348 5.09773H118.962C120.506 5.09773 121.993 5.65402 123.451 6.77939C124.173 7.32289 124.759 8.05821 125.216 8.98855H125.219ZM120.519 13.8129C121.034 13.4229 121.283 12.8538 121.283 12.0769C121.283 11.3 121.034 10.7278 120.519 10.3249C120.004 9.93488 119.49 9.72707 118.949 9.72707H115.669V14.3692H118.978C119.493 14.398 120.008 14.203 120.522 13.8129H120.519Z" fill="#5D2684"/>
<path d="M129.417 12.2431C130.89 10.8812 132.572 10.2002 134.462 10.2002C136.351 10.2002 138.02 10.8812 139.478 12.2304C140.939 13.5923 141.661 15.3155 141.661 17.416C141.661 18.877 141.287 20.1559 140.536 21.294C139.785 22.4194 138.867 23.2538 137.799 23.7813C136.728 24.3088 135.603 24.587 134.449 24.587C133.295 24.587 132.169 24.3088 131.085 23.7398C130.002 23.1707 129.084 22.3363 128.349 21.2237C127.598 20.1111 127.236 18.8611 127.236 17.4575C127.207 15.3443 127.946 13.6083 129.42 12.2463L129.417 12.2431ZM132.697 19.3182C133.253 19.7498 133.822 19.9576 134.407 19.9576C134.992 19.9576 135.561 19.7339 136.143 19.3054C136.728 18.8738 137.006 18.2216 137.006 17.3584C137.006 16.4952 136.728 15.8558 136.188 15.4402C135.645 15.0246 135.063 14.8136 134.423 14.8136C133.784 14.8136 133.199 15.0374 132.658 15.4658C132.115 15.9102 131.84 16.5496 131.84 17.3968C131.869 18.244 132.147 18.8834 132.7 19.315L132.697 19.3182Z" fill="#5D2684"/>
<path d="M143.468 23.1132C143.135 22.9054 142.966 22.5697 142.966 22.1125C142.966 21.6553 143.298 20.9711 143.966 20.0408C144.161 19.7499 144.468 19.5964 144.897 19.5964C145.325 19.5964 145.91 19.8042 146.649 20.2358C147.384 20.6674 148.052 20.8752 148.65 20.8752C149.721 20.8752 150.249 20.6674 150.249 20.2486C150.249 19.9161 149.664 19.6635 148.484 19.5133C147.387 19.3598 146.288 18.9442 145.204 18.276C144.689 17.9563 144.273 17.4704 143.938 16.7894C143.605 16.1212 143.436 15.3155 143.436 14.3852C143.436 11.6197 145.341 10.229 149.136 10.229C150.373 10.229 151.652 10.52 152.973 11.1178C153.583 11.396 153.89 11.7444 153.89 12.1728C153.89 12.6012 153.695 13.1032 153.305 13.717C152.915 14.3277 152.528 14.6346 152.125 14.6346C151.918 14.6346 151.527 14.5099 150.958 14.2445C150.389 13.9792 149.775 13.8545 149.111 13.8545C148.081 13.8545 147.566 14.0495 147.566 14.4396C147.566 14.9671 148.164 15.3028 149.347 15.469C150.501 15.5937 151.627 15.9262 152.71 16.4697C153.225 16.7191 153.641 17.1379 153.989 17.7485C154.338 18.3464 154.504 19.1105 154.504 20.0152C154.504 20.92 154.338 21.6969 153.989 22.3363C153.641 22.9757 153.168 23.4489 152.557 23.7686C151.432 24.3121 150.028 24.5902 148.346 24.5902C146.665 24.5902 145.025 24.1043 143.468 23.1164V23.1132Z" fill="#5D2684"/>
<path d="M163.817 15.1621L162.107 15.0502V18.6788C162.107 19.152 162.177 19.5005 162.33 19.7083C162.484 19.9161 162.762 20.028 163.165 20.028C163.568 20.028 163.887 20.0408 164.111 20.0695C164.335 20.0983 164.556 20.1814 164.805 20.3189C165.208 20.5427 165.403 21.1406 165.403 22.0837C165.403 23.1803 165.153 23.8645 164.667 24.0978C164.402 24.2225 164.165 24.2929 163.974 24.3216C163.766 24.3504 163.472 24.3632 163.098 24.3632C161.275 24.3632 159.901 23.9476 158.941 23.1259C157.995 22.3043 157.525 20.9168 157.525 18.957V15.0662C157.193 15.1205 156.831 15.1493 156.454 15.1493C156.077 15.1493 155.744 14.9958 155.495 14.7049C155.246 14.414 155.121 13.8992 155.121 13.1767C155.121 12.4542 155.163 11.9394 155.246 11.6197C155.329 11.3 155.453 11.0634 155.607 10.926C155.885 10.7022 156.234 10.5775 156.662 10.5775L157.522 10.6894V7.97827C157.522 7.57544 157.535 7.28451 157.564 7.08949C157.592 6.89447 157.675 6.68666 157.813 6.46287C158.037 6.03127 158.718 5.81067 159.827 5.81067C161.023 5.81067 161.733 6.13037 161.953 6.78257C162.036 7.06072 162.078 7.50511 162.078 8.11575V10.6862C162.842 10.6158 163.427 10.5743 163.83 10.5743C164.233 10.5743 164.524 10.5871 164.719 10.6158C164.914 10.6446 165.15 10.7277 165.412 10.8652C165.869 11.089 166.093 11.77 166.093 12.8794C166.093 13.9887 165.857 14.6601 165.384 14.8935C165.118 15.0182 164.882 15.0885 164.69 15.1173C164.524 15.1461 164.217 15.1589 163.814 15.1589L163.817 15.1621Z" fill="#5D2684"/>
<path d="M169.389 12.2431C170.863 10.8812 172.545 10.2002 174.434 10.2002C176.324 10.2002 177.993 10.8812 179.451 12.2304C180.912 13.5923 181.634 15.3155 181.634 17.416C181.634 18.877 181.26 20.1559 180.509 21.294C179.758 22.4194 178.84 23.2538 177.772 23.7813C176.701 24.3088 175.576 24.587 174.422 24.587C173.268 24.587 172.142 24.3088 171.058 23.7398C169.975 23.1707 169.057 22.3363 168.322 21.2237C167.57 20.1111 167.209 18.8611 167.209 17.4575C167.18 15.3443 167.919 13.6083 169.393 12.2463L169.389 12.2431ZM172.67 19.3182C173.226 19.7498 173.795 19.9576 174.38 19.9576C174.965 19.9576 175.534 19.7339 176.119 19.3054C176.704 18.8738 176.979 18.2216 176.979 17.3584C176.979 16.4952 176.701 15.8558 176.158 15.4402C175.614 15.0246 175.032 14.8136 174.393 14.8136C173.753 14.8136 173.168 15.0374 172.628 15.4658C172.085 15.9102 171.81 16.5496 171.81 17.3968C171.822 18.244 172.101 18.8834 172.67 19.315V19.3182Z" fill="#5D2684"/>
<path d="M38.8663 4.01708L31.2478 1.60649L30.8513 11.4822C31.1071 11.738 31.2478 12.403 31.2478 12.8442V21.684C31.2478 22.1252 31.1327 22.5344 30.9344 22.9053L40.7526 28.6248C41.1778 27.8735 41.4208 27.0071 41.4208 26.0992V8.445C41.4208 6.61309 40.4425 4.92504 38.8663 4.01708Z" fill="#4E2771"/>
<path d="M3.2671 4.01707L10.8857 1.60649L11.2821 11.4822C11.0264 11.738 10.8857 12.403 10.8857 12.8442V21.684C10.8857 22.1252 10.9976 22.5344 11.199 22.9053L1.38083 28.6057C0.955623 27.8543 0.712646 26.9879 0.712646 26.08V8.445C0.712646 6.61309 1.67816 4.92504 3.2671 4.01707Z" fill="#4E2771"/>
<path d="M30.9185 22.9021C30.6915 23.2986 30.3654 23.6406 29.9689 23.8804L22.3503 28.2924C21.9539 28.5194 21.5127 28.6345 21.0747 28.6345C20.6367 28.6345 20.1955 28.5194 19.7991 28.2924L12.1805 23.8804C11.7681 23.6406 11.442 23.2986 11.231 22.9021L1.38083 28.6057C1.7357 29.2291 2.21846 29.7822 2.81311 30.2106L18.9583 39.546C19.6264 39.8433 20.349 40 21.0587 40C21.7685 40 22.491 39.8433 23.1592 39.546L39.3043 30.2106C39.899 29.7854 40.3818 29.2323 40.7366 28.6057L30.9185 22.9021Z" fill="#5D2684"/>
<path d="M38.8663 4.0171L32.3252 0.244575C31.6314 -0.081525 30.8353 -0.081525 30.1416 0.244575L30.0425 0.286137C30.0137 0.298925 29.9849 0.31491 29.9561 0.327699L22.3375 4.73964C21.9411 4.96663 21.4999 5.08173 21.0619 5.08173C20.6239 5.08173 20.1827 4.96663 19.7863 4.73964L12.1613 0.327699C12.1325 0.31491 12.1038 0.298925 12.075 0.286137L11.9759 0.244575C11.2821 -0.081525 10.4861 -0.081525 9.79229 0.244575L3.25111 4.0171C2.47102 4.47109 1.83161 5.12329 1.39362 5.8746L19.5401 16.3482C19.9653 16.6327 20.4896 16.8021 21.0427 16.8021H21.0555C21.6086 16.8021 22.1329 16.6327 22.5581 16.3482L40.7238 5.89058C40.2826 5.12329 39.6592 4.47109 38.8663 4.0171Z" fill="#5D2684"/>
<path d="M57.1759 33.3596V34.5969C57.1759 34.7599 57.1599 34.891 57.1279 34.9901C57.096 35.0892 57.0352 35.1756 56.9489 35.2555C56.8626 35.3354 56.7507 35.4121 56.6164 35.4857C56.2264 35.6967 55.8491 35.8501 55.491 35.9493C55.133 36.0484 54.7365 36.0931 54.3113 36.0931C53.8158 36.0931 53.365 36.0164 52.9558 35.8629C52.5465 35.7095 52.2013 35.4889 51.9135 35.1979C51.6258 34.907 51.4052 34.5553 51.2517 34.1429C51.0983 33.7305 51.0215 33.2669 51.0215 32.7554C51.0215 32.2439 51.0951 31.7931 51.2453 31.3775C51.3956 30.9618 51.6162 30.607 51.9071 30.316C52.1981 30.0251 52.5497 29.8045 52.9686 29.651C53.3842 29.4976 53.8573 29.4209 54.3849 29.4209C54.8197 29.4209 55.2033 29.4784 55.539 29.5935C55.8747 29.7086 56.1432 29.8557 56.3542 30.0315C56.562 30.2073 56.7187 30.3928 56.8242 30.591C56.9297 30.7892 56.9841 30.9618 56.9841 31.1153C56.9841 31.2784 56.9233 31.419 56.8018 31.5341C56.6803 31.6492 56.5333 31.7068 56.3638 31.7068C56.2711 31.7068 56.1784 31.6844 56.0921 31.6396C56.0058 31.5949 55.9322 31.5341 55.8747 31.4542C55.7148 31.2016 55.5774 31.0098 55.4655 30.8819C55.3536 30.754 55.2033 30.6453 55.0147 30.5558C54.826 30.4663 54.5831 30.4247 54.2921 30.4247C54.0012 30.4247 53.7199 30.4759 53.4833 30.5814C53.2467 30.6869 53.0421 30.8372 52.8726 31.0354C52.7032 31.2336 52.5753 31.4766 52.4858 31.7643C52.3963 32.052 52.3515 32.3717 52.3515 32.7202C52.3515 33.4779 52.5242 34.0598 52.8726 34.4658C53.2211 34.875 53.7039 35.0765 54.3273 35.0765C54.631 35.0765 54.9124 35.0381 55.1777 34.9582C55.4431 34.8782 55.7116 34.7663 55.9866 34.6193V33.5706H54.9731C54.7301 33.5706 54.5447 33.5355 54.42 33.4619C54.2953 33.3884 54.2314 33.2637 54.2314 33.0879C54.2314 32.944 54.2825 32.8257 54.388 32.7298C54.4936 32.6371 54.6342 32.5891 54.8133 32.5891H56.2967C56.4789 32.5891 56.6324 32.6051 56.7603 32.6371C56.8849 32.6691 56.9873 32.7426 57.0672 32.8513C57.1471 32.96 57.1855 33.1294 57.1855 33.3532L57.1759 33.3596Z" fill="#4E2771"/>
<path d="M61.6901 33.9448H59.3403C59.3403 34.2165 59.3978 34.4595 59.5065 34.6673C59.612 34.8751 59.7559 35.0318 59.9317 35.1373C60.1108 35.2428 60.3058 35.2971 60.52 35.2971C60.6639 35.2971 60.7949 35.2811 60.9132 35.246C61.0315 35.2108 61.1466 35.1597 61.2585 35.0861C61.3704 35.0158 61.4727 34.9391 61.5654 34.8559C61.6581 34.7728 61.7796 34.6609 61.9299 34.5202C61.9906 34.4659 62.0802 34.4403 62.1953 34.4403C62.3167 34.4403 62.419 34.4755 62.4958 34.5426C62.5725 34.6098 62.6109 34.7057 62.6109 34.8272C62.6109 34.9359 62.5693 35.0637 62.483 35.2076C62.3967 35.3515 62.2688 35.4922 62.0961 35.6264C61.9235 35.7607 61.7093 35.8694 61.4503 35.9589C61.1914 36.0452 60.8909 36.09 60.5552 36.09C59.7847 36.09 59.1836 35.8694 58.7552 35.4314C58.3268 34.9934 58.1126 34.3956 58.1126 33.6411C58.1126 33.2862 58.167 32.9569 58.2725 32.6532C58.378 32.3494 58.5314 32.0905 58.736 31.8731C58.9375 31.6557 59.1868 31.4894 59.4842 31.3743C59.7815 31.2592 60.1108 31.2017 60.4688 31.2017C60.9388 31.2017 61.3416 31.3008 61.6773 31.499C62.013 31.6972 62.2656 31.953 62.4318 32.2663C62.5981 32.5796 62.6812 32.8993 62.6812 33.2254C62.6812 33.5292 62.5949 33.7242 62.4222 33.8137C62.2496 33.9032 62.0066 33.948 61.6933 33.948L61.6901 33.9448ZM59.3403 33.2638H61.5175C61.4887 32.8514 61.3768 32.5445 61.185 32.343C60.9932 32.1384 60.7406 32.0361 60.4241 32.0361C60.1076 32.0361 59.8774 32.1384 59.6856 32.3462C59.4937 32.5541 59.3754 32.8578 59.3371 33.2638H59.3403Z" fill="#4E2771"/>
<path d="M67.5631 34.5202C67.5631 34.8527 67.4832 35.1341 67.3201 35.3707C67.1603 35.6072 66.9205 35.7863 66.604 35.9078C66.2875 36.0293 65.9038 36.09 65.4531 36.09C65.0023 36.09 64.6506 36.0229 64.3437 35.8918C64.0368 35.7607 63.8066 35.5945 63.6627 35.3962C63.5156 35.198 63.4421 34.9998 63.4421 34.7984C63.4421 34.6673 63.4901 34.5522 63.5828 34.4595C63.6755 34.3668 63.797 34.3188 63.9409 34.3188C64.0655 34.3188 64.1646 34.3508 64.2318 34.4115C64.2989 34.4723 64.3629 34.5586 64.4268 34.6705C64.5515 34.8847 64.6986 35.0446 64.868 35.1501C65.0374 35.2556 65.274 35.3099 65.5714 35.3099C65.8111 35.3099 66.0094 35.2556 66.1628 35.1501C66.3163 35.0446 66.393 34.9199 66.393 34.7824C66.393 34.5714 66.3131 34.4179 66.1532 34.3188C65.9934 34.2197 65.7312 34.1302 65.3635 34.0407C64.9511 33.9384 64.6122 33.8297 64.3533 33.7178C64.0943 33.6059 63.8865 33.4556 63.7298 33.2702C63.5732 33.0848 63.4965 32.8578 63.4965 32.5892C63.4965 32.3494 63.5668 32.1225 63.7107 31.9083C63.8545 31.694 64.0655 31.5246 64.3469 31.3967C64.6282 31.2688 64.9639 31.2049 65.3604 31.2049C65.6705 31.2049 65.9518 31.2369 66.198 31.3008C66.4442 31.3648 66.652 31.4511 66.8182 31.5598C66.9845 31.6685 67.1091 31.79 67.1955 31.921C67.2818 32.0521 67.3265 32.1832 67.3265 32.3079C67.3265 32.4454 67.2818 32.5573 67.1891 32.6468C67.0963 32.7363 66.9653 32.7779 66.7958 32.7779C66.6711 32.7779 66.5688 32.7427 66.4825 32.6723C66.3962 32.602 66.2971 32.4965 66.1852 32.3558C66.0925 32.2375 65.987 32.1448 65.8655 32.0745C65.7408 32.0042 65.5746 31.969 65.3635 31.969C65.1525 31.969 64.9671 32.0138 64.8232 32.1065C64.6794 32.1992 64.609 32.3143 64.609 32.4518C64.609 32.5764 64.6634 32.6819 64.7689 32.7619C64.8744 32.8418 65.0183 32.9089 65.1941 32.9633C65.3699 33.0176 65.6193 33.0816 65.9326 33.1583C66.3067 33.251 66.6104 33.3565 66.847 33.4844C67.0836 33.6123 67.2626 33.7593 67.3841 33.932C67.5056 34.1046 67.5663 34.2997 67.5663 34.5202H67.5631Z" fill="#4E2771"/>
<path d="M68.6437 31.3136H68.7748V30.591C68.7748 30.396 68.7812 30.2458 68.7908 30.1371C68.8004 30.0284 68.8292 29.9324 68.8771 29.8525C68.9251 29.7694 68.9922 29.7023 69.0785 29.6511C69.1681 29.5999 69.264 29.5744 69.3727 29.5744C69.5261 29.5744 69.6636 29.6319 69.7851 29.747C69.8682 29.8237 69.9194 29.9165 69.9417 30.0252C69.9641 30.1339 69.9737 30.2905 69.9737 30.4951V31.3136H70.4149C70.5844 31.3136 70.7154 31.3551 70.8049 31.4351C70.8945 31.515 70.9392 31.6205 70.9392 31.7452C70.9392 31.905 70.8753 32.0201 70.7474 32.0841C70.6195 32.148 70.4373 32.18 70.2007 32.18H69.9769V34.3891C69.9769 34.5778 69.9833 34.7216 69.9961 34.8239C70.0089 34.9262 70.044 35.0062 70.1016 35.0701C70.1591 35.1341 70.2519 35.166 70.3797 35.166C70.4501 35.166 70.546 35.1532 70.6643 35.1277C70.7858 35.1021 70.8785 35.0893 70.9456 35.0893C71.0415 35.0893 71.131 35.1277 71.2078 35.2076C71.2845 35.2875 71.3261 35.3802 71.3261 35.4953C71.3261 35.6903 71.2206 35.8374 71.0096 35.9397C70.7986 36.042 70.4948 36.0932 70.0984 36.0932C69.7243 36.0932 69.4398 36.0292 69.2448 35.9045C69.0498 35.7799 68.9251 35.604 68.8643 35.3802C68.8036 35.1564 68.7748 34.8591 68.7748 34.4882V32.1832H68.615C68.4423 32.1832 68.308 32.1416 68.2185 32.0585C68.129 31.9754 68.0811 31.8731 68.0811 31.7452C68.0811 31.6173 68.129 31.515 68.2249 31.4351C68.3208 31.3551 68.4583 31.3136 68.6405 31.3136H68.6437Z" fill="#4E2771"/>
<path d="M74.8044 35.4154C74.5135 35.6424 74.2322 35.8119 73.9604 35.9238C73.6887 36.0357 73.385 36.0932 73.0461 36.0932C72.7391 36.0932 72.4674 36.0325 72.234 35.911C72.0006 35.7895 71.8216 35.6232 71.6937 35.4154C71.569 35.2076 71.5051 34.9806 71.5051 34.7377C71.5051 34.4084 71.6106 34.1302 71.8184 33.8968C72.0262 33.6666 72.3139 33.51 72.6752 33.4301C72.7519 33.4141 72.9406 33.3725 73.2443 33.3118C73.5448 33.251 73.8038 33.1935 74.0212 33.1423C74.2354 33.0912 74.472 33.0272 74.7245 32.9569C74.7085 32.6404 74.6446 32.407 74.5327 32.2599C74.4208 32.1129 74.1842 32.0361 73.8293 32.0361C73.5256 32.0361 73.2954 32.0777 73.142 32.164C72.9885 32.2503 72.8574 32.3782 72.7455 32.5477C72.6368 32.7171 72.5569 32.829 72.5122 32.8834C72.4674 32.9377 72.3683 32.9633 72.218 32.9633C72.0838 32.9633 71.9655 32.9217 71.8696 32.8322C71.7704 32.7459 71.7225 32.634 71.7225 32.4997C71.7225 32.2887 71.796 32.0841 71.9463 31.8827C72.0965 31.6845 72.3299 31.5182 72.6464 31.3903C72.9629 31.2625 73.3562 31.1953 73.8293 31.1953C74.3569 31.1953 74.7725 31.2561 75.0762 31.3808C75.3767 31.5054 75.5909 31.7037 75.7156 31.9722C75.8403 32.2408 75.901 32.5988 75.901 33.0464C75.901 33.3278 75.901 33.5675 75.901 33.7626C75.901 33.9576 75.8978 34.1782 75.8946 34.418C75.8946 34.6449 75.933 34.8783 76.0065 35.1245C76.0801 35.3707 76.1184 35.5273 76.1184 35.5977C76.1184 35.7192 76.0609 35.8343 75.9458 35.9334C75.8307 36.0357 75.6996 36.0836 75.5526 36.0836C75.4279 36.0836 75.3064 36.0261 75.1881 35.911C75.0666 35.7959 74.9387 35.6264 74.8044 35.4058V35.4154ZM72.947 30.2138C72.7967 30.2138 72.6976 30.3129 72.6432 30.5143C72.5889 30.687 72.5122 30.7733 72.4067 30.7733C72.3427 30.7733 72.2852 30.7445 72.234 30.6838C72.1829 30.623 72.1573 30.5399 72.1573 30.4312C72.1573 30.2842 72.1893 30.1435 72.2532 30.006C72.3171 29.8685 72.4067 29.7598 72.5249 29.6799C72.64 29.6 72.7647 29.5584 72.8958 29.5584C73.0269 29.5584 73.1516 29.5776 73.2635 29.616C73.3754 29.6543 73.5288 29.7151 73.7174 29.8014C73.9061 29.8877 74.0372 29.9453 74.1075 29.9676C74.1778 29.9932 74.2546 30.006 74.3409 30.006C74.4272 30.006 74.4943 29.9836 74.5423 29.9421C74.5902 29.9005 74.6286 29.8238 74.6542 29.7119C74.7021 29.5424 74.7789 29.4561 74.8908 29.4561C74.9579 29.4561 75.0155 29.4881 75.0666 29.5488C75.1178 29.6096 75.1401 29.6959 75.1401 29.8014C75.1401 29.9645 75.0762 30.1499 74.9547 30.3577C74.83 30.5655 74.6382 30.6678 74.376 30.6678C74.2769 30.6678 74.1746 30.6518 74.0691 30.6167C73.9636 30.5815 73.8198 30.5239 73.6343 30.444C73.4489 30.3641 73.3114 30.3033 73.2219 30.2682C73.1324 30.233 73.0429 30.2138 72.9534 30.2138H72.947ZM74.7245 33.6762C74.5487 33.7402 74.2929 33.8105 73.9572 33.8809C73.6215 33.9512 73.3882 34.0055 73.2603 34.0407C73.1324 34.0759 73.0077 34.1398 72.8894 34.2389C72.7711 34.338 72.7136 34.4755 72.7136 34.6513C72.7136 34.8272 72.7839 34.987 72.9214 35.1149C73.0589 35.2428 73.2411 35.3067 73.4617 35.3067C73.6983 35.3067 73.9189 35.2556 74.1203 35.1501C74.3217 35.0446 74.4688 34.9103 74.5615 34.7473C74.6702 34.565 74.7245 34.2677 74.7245 33.8489V33.6762Z" fill="#4E2771"/>
<path d="M81.6238 33.6507C81.6238 34.0087 81.5695 34.338 81.4576 34.6417C81.3457 34.9455 81.1858 35.2044 80.9748 35.4218C80.7638 35.6392 80.5112 35.8055 80.2171 35.9206C79.923 36.0357 79.5937 36.0932 79.226 36.0932C78.8583 36.0932 78.5354 36.0357 78.2445 35.9174C77.9536 35.7991 77.701 35.6328 77.49 35.4122C77.279 35.1916 77.116 34.9359 77.0073 34.6385C76.8986 34.3412 76.841 34.0119 76.841 33.6507C76.841 33.2894 76.8954 32.9537 77.0073 32.6532C77.1191 32.3495 77.279 32.0937 77.4868 31.8795C77.6946 31.6653 77.9472 31.499 78.2445 31.3839C78.5418 31.2688 78.8679 31.2113 79.226 31.2113C79.5841 31.2113 79.9198 31.2688 80.2171 31.3871C80.5144 31.5054 80.767 31.6717 80.978 31.8891C81.189 32.1065 81.3489 32.3654 81.4608 32.6628C81.5695 32.9633 81.627 33.2926 81.627 33.6539L81.6238 33.6507ZM80.4185 33.6507C80.4185 33.1615 80.3098 32.7779 80.0956 32.5061C79.8814 32.2344 79.5905 32.0969 79.226 32.0969C78.9926 32.0969 78.7848 32.1576 78.6058 32.2791C78.4267 32.4006 78.2893 32.5796 78.1934 32.8194C78.0975 33.056 78.0463 33.3341 78.0463 33.6507C78.0463 33.9672 78.0943 34.2389 78.1902 34.4723C78.2861 34.7057 78.4204 34.8879 78.5994 35.0126C78.7784 35.1373 78.9862 35.198 79.226 35.198C79.5905 35.198 79.8782 35.0606 80.0956 34.7856C80.313 34.5107 80.4185 34.1334 80.4185 33.6475V33.6507Z" fill="#4E2771"/>
<path d="M88.1746 33.9448H85.8247C85.8247 34.2165 85.8823 34.4595 85.991 34.6673C86.0965 34.8751 86.2404 35.0318 86.4162 35.1373C86.5952 35.2428 86.7902 35.2971 87.0044 35.2971C87.1483 35.2971 87.2794 35.2811 87.3977 35.246C87.516 35.2108 87.6311 35.1597 87.743 35.0861C87.8549 35.0158 87.9572 34.9391 88.0499 34.8559C88.1426 34.7728 88.2641 34.6609 88.4143 34.5202C88.4751 34.4659 88.5646 34.4403 88.6797 34.4403C88.8012 34.4403 88.9035 34.4755 88.9802 34.5426C89.057 34.6098 89.0953 34.7057 89.0953 34.8272C89.0953 34.9359 89.0538 35.0637 88.9674 35.2076C88.8811 35.3515 88.7532 35.4922 88.5806 35.6264C88.408 35.7607 88.1938 35.8694 87.9348 35.9589C87.6758 36.0452 87.3753 36.09 87.0396 36.09C86.2691 36.09 85.6681 35.8694 85.2397 35.4314C84.8113 34.9934 84.5971 34.3956 84.5971 33.6411C84.5971 33.2862 84.6514 32.9569 84.7569 32.6532C84.8624 32.3494 85.0159 32.0905 85.2205 31.8731C85.4219 31.6557 85.6713 31.4894 85.9686 31.3743C86.2659 31.2592 86.5952 31.2017 86.9533 31.2017C87.4233 31.2017 87.8261 31.3008 88.1618 31.499C88.4975 31.6972 88.75 31.953 88.9163 32.2663C89.0825 32.5796 89.1657 32.8993 89.1657 33.2254C89.1657 33.5292 89.0793 33.7242 88.9067 33.8137C88.734 33.9032 88.4911 33.948 88.1778 33.948L88.1746 33.9448ZM85.8247 33.2638H88.0019C87.9732 32.8514 87.8613 32.5445 87.6694 32.343C87.4776 32.1384 87.225 32.0361 86.9085 32.0361C86.592 32.0361 86.3618 32.1384 86.17 32.3462C85.9782 32.5541 85.8599 32.8578 85.8215 33.2638H85.8247Z" fill="#4E2771"/>
<path d="M96.3718 30.5367H93.7982V32.1864H95.9498C96.148 32.1864 96.2983 32.2312 96.3974 32.3207C96.4965 32.4102 96.5445 32.5285 96.5445 32.6787C96.5445 32.829 96.4933 32.9473 96.3942 33.0368C96.2951 33.1263 96.1448 33.1679 95.9498 33.1679H93.7982V35.2939C93.7982 35.5625 93.7374 35.7639 93.616 35.895C93.4945 36.0261 93.3378 36.09 93.146 36.09C92.9542 36.09 92.7943 36.0229 92.6728 35.8918C92.5513 35.7607 92.4906 35.5593 92.4906 35.2939V30.3289C92.4906 30.1403 92.5194 29.9868 92.5737 29.8685C92.6281 29.7502 92.7176 29.6639 92.8359 29.6096C92.9542 29.5552 93.1076 29.5296 93.2899 29.5296H96.3718C96.5796 29.5296 96.7331 29.5744 96.8354 29.6671C96.9377 29.7598 96.9857 29.8813 96.9857 30.0316C96.9857 30.1818 96.9345 30.3065 96.8354 30.3992C96.7363 30.492 96.5796 30.5367 96.3718 30.5367Z" fill="#4E2771"/>
<path d="M98.3636 30.6486C98.1973 30.6486 98.0535 30.5974 97.9352 30.4951C97.8169 30.3928 97.7561 30.2457 97.7561 30.0603C97.7561 29.8909 97.8169 29.7502 97.9384 29.6383C98.0599 29.5296 98.2005 29.472 98.3636 29.472C98.5266 29.472 98.6577 29.5232 98.776 29.6223C98.8975 29.7214 98.955 29.8685 98.955 30.0571C98.955 30.2457 98.8975 30.3864 98.7792 30.4919C98.6609 30.5974 98.5234 30.6486 98.3604 30.6486H98.3636ZM98.9582 31.889V35.361C98.9582 35.6008 98.9007 35.783 98.7856 35.9077C98.6705 36.0324 98.5266 36.0932 98.3508 36.0932C98.175 36.0932 98.0311 36.0292 97.9224 35.9045C97.8137 35.7798 97.7561 35.5976 97.7561 35.3642V31.9274C97.7561 31.6908 97.8105 31.5118 97.9224 31.3903C98.0311 31.2688 98.175 31.2112 98.3508 31.2112C98.5266 31.2112 98.6705 31.272 98.7856 31.3903C98.9007 31.5118 98.9582 31.678 98.9582 31.8922V31.889Z" fill="#4E2771"/>
<path d="M103.492 35.4058V35.2875C103.332 35.4729 103.172 35.6232 103.015 35.7383C102.859 35.8534 102.689 35.9429 102.504 36.0037C102.322 36.0644 102.12 36.0932 101.903 36.0932C101.615 36.0932 101.35 36.0324 101.103 35.9109C100.857 35.7895 100.646 35.6168 100.467 35.3898C100.288 35.1628 100.154 34.8975 100.061 34.5938C99.9685 34.2868 99.9238 33.9575 99.9238 33.6027C99.9238 32.8514 100.106 32.2663 100.474 31.8475C100.841 31.4287 101.324 31.2177 101.922 31.2177C102.267 31.2177 102.561 31.2784 102.798 31.3967C103.035 31.515 103.268 31.6972 103.492 31.9434V30.169C103.492 29.9229 103.54 29.7374 103.639 29.6095C103.738 29.4849 103.879 29.4209 104.058 29.4209C104.237 29.4209 104.38 29.4785 104.476 29.5936C104.575 29.7087 104.623 29.8813 104.623 30.1051V35.4026C104.623 35.6328 104.569 35.8022 104.464 35.9173C104.358 36.0324 104.221 36.09 104.054 36.09C103.888 36.09 103.754 36.0292 103.648 35.9109C103.543 35.7927 103.488 35.6232 103.488 35.4026L103.492 35.4058ZM101.129 33.641C101.129 33.9671 101.18 34.2453 101.279 34.4723C101.378 34.6993 101.519 34.8719 101.695 34.9902C101.871 35.1053 102.063 35.1628 102.27 35.1628C102.478 35.1628 102.673 35.1085 102.849 34.9966C103.025 34.8879 103.162 34.7184 103.268 34.4915C103.373 34.2645 103.425 33.9799 103.425 33.641C103.425 33.3213 103.373 33.0464 103.268 32.8162C103.162 32.586 103.022 32.4102 102.846 32.2887C102.67 32.1672 102.475 32.1064 102.264 32.1064C102.053 32.1064 101.848 32.1704 101.676 32.2919C101.503 32.4166 101.369 32.5956 101.273 32.829C101.177 33.0624 101.129 33.3341 101.129 33.641Z" fill="#4E2771"/>
<path d="M109.186 33.9448H106.836C106.836 34.2165 106.893 34.4595 107.002 34.6673C107.108 34.8751 107.251 35.0318 107.427 35.1373C107.606 35.2428 107.801 35.2971 108.016 35.2971C108.159 35.2971 108.29 35.2811 108.409 35.246C108.527 35.2108 108.642 35.1597 108.754 35.0861C108.866 35.0158 108.968 34.9391 109.061 34.8559C109.154 34.7728 109.275 34.6609 109.425 34.5202C109.486 34.4659 109.576 34.4403 109.691 34.4403C109.815 34.4403 109.915 34.4755 109.991 34.5426C110.068 34.6098 110.106 34.7057 110.106 34.8272C110.106 34.9359 110.065 35.0637 109.979 35.2076C109.892 35.3515 109.764 35.4922 109.595 35.6264C109.422 35.7607 109.208 35.8694 108.949 35.9589C108.69 36.0452 108.39 36.09 108.054 36.09C107.283 36.09 106.682 35.8694 106.254 35.4314C105.826 34.9934 105.611 34.3956 105.611 33.6411C105.611 33.2862 105.666 32.9569 105.771 32.6532C105.877 32.3494 106.03 32.0905 106.235 31.8731C106.436 31.6557 106.686 31.4894 106.983 31.3743C107.28 31.2592 107.606 31.2017 107.968 31.2017C108.438 31.2017 108.84 31.3008 109.176 31.499C109.512 31.6972 109.764 31.953 109.931 32.2663C110.097 32.5796 110.18 32.8993 110.18 33.2254C110.18 33.5292 110.094 33.7242 109.921 33.8137C109.748 33.9032 109.505 33.948 109.189 33.948L109.186 33.9448ZM106.836 33.2638H109.013C108.984 32.8514 108.872 32.5445 108.681 32.343C108.489 32.1384 108.236 32.0361 107.92 32.0361C107.603 32.0361 107.373 32.1384 107.181 32.3462C106.989 32.5541 106.871 32.8578 106.833 33.2638H106.836Z" fill="#4E2771"/>
<path d="M111.19 35.3611V30.1498C111.19 29.9101 111.245 29.7278 111.35 29.6031C111.456 29.4785 111.603 29.4177 111.785 29.4177C111.967 29.4177 112.114 29.4785 112.226 29.5999C112.338 29.7214 112.392 29.9037 112.392 30.1466V35.3579C112.392 35.6008 112.335 35.7831 112.223 35.9045C112.111 36.026 111.964 36.0868 111.785 36.0868C111.606 36.0868 111.465 36.0228 111.356 35.8982C111.248 35.7735 111.19 35.5912 111.19 35.3579V35.3611Z" fill="#4E2771"/>
<path d="M114.237 30.6486C114.071 30.6486 113.927 30.5974 113.809 30.4951C113.69 30.3928 113.63 30.2457 113.63 30.0603C113.63 29.8909 113.69 29.7502 113.812 29.6383C113.933 29.5296 114.074 29.472 114.237 29.472C114.4 29.472 114.531 29.5232 114.649 29.6223C114.771 29.7214 114.828 29.8685 114.828 30.0571C114.828 30.2457 114.771 30.3864 114.653 30.4919C114.534 30.5974 114.397 30.6486 114.234 30.6486H114.237ZM114.832 31.889V35.361C114.832 35.6008 114.774 35.783 114.659 35.9077C114.544 36.0324 114.4 36.0932 114.224 36.0932C114.048 36.0932 113.905 36.0292 113.796 35.9045C113.687 35.7798 113.63 35.5976 113.63 35.3642V31.9274C113.63 31.6908 113.684 31.5118 113.796 31.3903C113.905 31.2688 114.048 31.2112 114.224 31.2112C114.4 31.2112 114.544 31.272 114.659 31.3903C114.774 31.5118 114.832 31.678 114.832 31.8922V31.889Z" fill="#4E2771"/>
<path d="M119.34 32.586L117.14 35.0477H119.493C119.685 35.0477 119.829 35.0925 119.925 35.182C120.02 35.2715 120.068 35.3866 120.068 35.5273C120.068 35.6679 120.02 35.7734 119.925 35.8566C119.829 35.9429 119.685 35.9845 119.49 35.9845H116.232C116.002 35.9845 115.832 35.9333 115.72 35.8342C115.609 35.7351 115.551 35.5976 115.551 35.425C115.551 35.3227 115.589 35.2204 115.669 35.1148C115.749 35.0093 115.912 34.8207 116.162 34.5394C116.427 34.2453 116.667 33.9799 116.881 33.7433C117.095 33.5067 117.297 33.2829 117.482 33.0783C117.667 32.8705 117.821 32.6947 117.942 32.5508C118.064 32.4069 118.163 32.2855 118.237 32.18H116.449C116.203 32.18 116.018 32.1576 115.89 32.1128C115.762 32.0681 115.701 31.953 115.701 31.7643C115.701 31.6269 115.749 31.515 115.845 31.435C115.941 31.3519 116.075 31.3104 116.251 31.3104H119.01C119.266 31.3104 119.461 31.3487 119.598 31.4222C119.736 31.4958 119.803 31.6301 119.803 31.8251C119.803 31.889 119.79 31.9562 119.765 32.0265C119.739 32.0968 119.71 32.1512 119.675 32.1959C119.643 32.2407 119.598 32.295 119.544 32.3558C119.49 32.4197 119.419 32.4933 119.336 32.5828L119.34 32.586Z" fill="#4E2771"/>
<path d="M123.806 35.4154C123.515 35.6424 123.234 35.8119 122.962 35.9238C122.69 36.0356 122.386 36.0932 122.047 36.0932C121.74 36.0932 121.469 36.0325 121.235 35.911C121.002 35.7895 120.823 35.6232 120.695 35.4154C120.57 35.2076 120.506 34.9806 120.506 34.7376C120.506 34.4083 120.612 34.1302 120.82 33.8968C121.028 33.6666 121.315 33.51 121.677 33.43C121.753 33.4141 121.942 33.3725 122.246 33.3118C122.549 33.251 122.805 33.1935 123.023 33.1423C123.24 33.0912 123.473 33.0272 123.726 32.9569C123.71 32.6404 123.646 32.407 123.534 32.2599C123.422 32.1129 123.189 32.0361 122.831 32.0361C122.524 32.0361 122.297 32.0777 122.143 32.164C121.99 32.2503 121.856 32.3782 121.747 32.5477C121.638 32.7171 121.558 32.829 121.513 32.8833C121.469 32.9377 121.37 32.9633 121.219 32.9633C121.085 32.9633 120.967 32.9217 120.871 32.8322C120.772 32.7459 120.724 32.634 120.724 32.4997C120.724 32.2887 120.797 32.0841 120.948 31.8827C121.098 31.6845 121.331 31.5182 121.648 31.3903C121.964 31.2624 122.358 31.1953 122.831 31.1953C123.358 31.1953 123.774 31.256 124.078 31.3807C124.381 31.5054 124.592 31.7036 124.717 31.9722C124.842 32.2407 124.902 32.5988 124.902 33.0464C124.902 33.3277 124.902 33.5675 124.902 33.7625C124.902 33.9576 124.899 34.1782 124.896 34.4179C124.896 34.6449 124.934 34.8783 125.008 35.1245C125.081 35.3707 125.12 35.5273 125.12 35.5977C125.12 35.7191 125.062 35.8342 124.947 35.9333C124.832 36.0356 124.701 36.0836 124.554 36.0836C124.432 36.0836 124.308 36.0261 124.189 35.911C124.068 35.7959 123.94 35.6264 123.806 35.4058V35.4154ZM123.726 33.6762C123.55 33.7402 123.294 33.8105 122.959 33.8808C122.623 33.9512 122.389 34.0055 122.262 34.0407C122.134 34.0759 122.009 34.1398 121.891 34.2389C121.772 34.338 121.715 34.4755 121.715 34.6513C121.715 34.8272 121.785 34.987 121.923 35.1149C122.06 35.2428 122.242 35.3067 122.463 35.3067C122.7 35.3067 122.92 35.2556 123.122 35.1501C123.323 35.0446 123.47 34.9103 123.563 34.7472C123.672 34.565 123.726 34.2677 123.726 33.8489V33.6762Z" fill="#4E2771"/>
<path d="M128.387 36.0932L128.371 36.1827C128.681 36.2083 128.915 36.2882 129.065 36.4161C129.215 36.544 129.292 36.7134 129.292 36.9212C129.292 37.0939 129.234 37.2473 129.122 37.3752C129.011 37.5031 128.844 37.6086 128.624 37.6789C128.403 37.7493 128.138 37.7876 127.824 37.7876C127.284 37.7876 127.016 37.6853 127.016 37.4807C127.016 37.4264 127.035 37.3752 127.076 37.3369C127.118 37.2985 127.166 37.2761 127.22 37.2761C127.233 37.2761 127.297 37.2825 127.415 37.2953C127.534 37.3081 127.639 37.3113 127.735 37.3113C128.262 37.3113 128.528 37.1866 128.528 36.934C128.528 36.8413 128.486 36.7646 128.406 36.7038C128.326 36.6399 128.224 36.6079 128.106 36.6079C128.058 36.6079 127.991 36.6143 127.904 36.6271C127.818 36.6399 127.751 36.6463 127.709 36.6463C127.636 36.6463 127.578 36.6207 127.537 36.5664C127.495 36.512 127.473 36.4545 127.473 36.3937C127.473 36.2531 127.681 36.1507 128.099 36.09C127.39 36.0516 126.846 35.8183 126.466 35.3866C126.085 34.955 125.897 34.3956 125.897 33.6986C125.897 33.2063 125.993 32.7715 126.184 32.391C126.376 32.0138 126.651 31.7196 127.012 31.5118C127.374 31.304 127.805 31.2017 128.307 31.2017C128.617 31.2017 128.905 31.2465 129.164 31.3392C129.423 31.4287 129.644 31.547 129.823 31.6908C130.002 31.8347 130.142 31.9882 130.235 32.1512C130.331 32.3143 130.379 32.4645 130.379 32.6052C130.379 32.7459 130.325 32.8706 130.219 32.9697C130.114 33.0688 129.983 33.1199 129.829 33.1199C129.676 33.1199 129.541 33.0464 129.433 32.8961C129.25 32.6308 129.084 32.439 128.931 32.3143C128.777 32.1896 128.563 32.1288 128.288 32.1288C127.933 32.1288 127.645 32.2663 127.431 32.5445C127.214 32.8226 127.105 33.1999 127.105 33.6826C127.105 33.9096 127.134 34.1174 127.188 34.306C127.243 34.4947 127.326 34.6577 127.431 34.7888C127.537 34.9199 127.665 35.0222 127.815 35.0925C127.965 35.1629 128.128 35.1948 128.307 35.1948C128.56 35.1948 128.758 35.1469 128.905 35.051C129.049 34.955 129.19 34.808 129.318 34.6098C129.445 34.4115 129.548 34.2773 129.618 34.2005C129.688 34.1238 129.794 34.0854 129.931 34.0854C130.069 34.0854 130.197 34.1398 130.296 34.2485C130.395 34.3572 130.443 34.4787 130.443 34.6098C130.443 34.808 130.363 35.019 130.206 35.2428C130.05 35.4698 129.816 35.6616 129.503 35.8246C129.193 35.9877 128.822 36.0772 128.394 36.0964L128.387 36.0932Z" fill="#4E2771"/>
<path d="M134.519 35.4154C134.228 35.6424 133.947 35.8119 133.675 35.9238C133.403 36.0357 133.1 36.0932 132.761 36.0932C132.454 36.0932 132.182 36.0325 131.949 35.911C131.715 35.7895 131.536 35.6232 131.408 35.4154C131.284 35.2076 131.22 34.9806 131.22 34.7377C131.22 34.4084 131.325 34.1302 131.533 33.8968C131.741 33.6666 132.029 33.51 132.39 33.4301C132.467 33.4141 132.655 33.3725 132.959 33.3118C133.263 33.251 133.518 33.1935 133.736 33.1423C133.953 33.0912 134.187 33.0272 134.439 32.9569C134.423 32.6404 134.359 32.407 134.247 32.2599C134.135 32.1129 133.902 32.0361 133.544 32.0361C133.237 32.0361 133.01 32.0777 132.857 32.164C132.703 32.2503 132.569 32.3782 132.46 32.5477C132.352 32.7171 132.272 32.829 132.227 32.8834C132.182 32.9377 132.083 32.9633 131.933 32.9633C131.798 32.9633 131.68 32.9217 131.584 32.8322C131.485 32.7459 131.437 32.634 131.437 32.4997C131.437 32.2887 131.511 32.0841 131.661 31.8827C131.811 31.6845 132.045 31.5182 132.361 31.3903C132.678 31.2625 133.071 31.1953 133.544 31.1953C134.072 31.1953 134.487 31.2561 134.791 31.3808C135.095 31.5054 135.306 31.7037 135.43 31.9722C135.555 32.2408 135.616 32.5988 135.616 33.0464C135.616 33.3278 135.616 33.5675 135.616 33.7626C135.616 33.9576 135.613 34.1782 135.609 34.418C135.609 34.6449 135.648 34.8783 135.721 35.1245C135.795 35.3707 135.833 35.5273 135.833 35.5977C135.833 35.7192 135.776 35.8343 135.66 35.9334C135.545 36.0357 135.414 36.0836 135.267 36.0836C135.146 36.0836 135.021 36.0261 134.903 35.911C134.781 35.7959 134.653 35.6264 134.519 35.4058V35.4154ZM132.662 30.2138C132.511 30.2138 132.412 30.3129 132.358 30.5143C132.304 30.687 132.227 30.7733 132.121 30.7733C132.057 30.7733 132 30.7445 131.949 30.6838C131.898 30.623 131.872 30.5399 131.872 30.4312C131.872 30.2842 131.904 30.1435 131.968 30.006C132.032 29.8685 132.121 29.7598 132.24 29.6799C132.355 29.6 132.479 29.5584 132.61 29.5584C132.742 29.5584 132.866 29.5776 132.978 29.616C133.09 29.6543 133.243 29.7151 133.432 29.8014C133.621 29.8877 133.752 29.9453 133.822 29.9676C133.893 29.9932 133.969 30.006 134.056 30.006C134.142 30.006 134.206 29.9836 134.257 29.9421C134.308 29.9005 134.343 29.8238 134.369 29.7119C134.417 29.5424 134.494 29.4561 134.605 29.4561C134.673 29.4561 134.73 29.4881 134.781 29.5488C134.832 29.6096 134.855 29.6959 134.855 29.8014C134.855 29.9645 134.791 30.1499 134.669 30.3577C134.545 30.5655 134.353 30.6678 134.091 30.6678C133.992 30.6678 133.889 30.6518 133.784 30.6167C133.678 30.5815 133.531 30.5239 133.349 30.444C133.167 30.3641 133.026 30.3033 132.937 30.2682C132.847 30.233 132.758 30.2138 132.668 30.2138H132.662ZM134.439 33.6762C134.263 33.7402 134.008 33.8105 133.672 33.8809C133.336 33.9512 133.103 34.0055 132.975 34.0407C132.847 34.0759 132.722 34.1398 132.604 34.2389C132.486 34.338 132.428 34.4755 132.428 34.6513C132.428 34.8272 132.499 34.987 132.636 35.1149C132.774 35.2428 132.956 35.3067 133.176 35.3067C133.413 35.3067 133.634 35.2556 133.835 35.1501C134.036 35.0446 134.183 34.9103 134.276 34.7473C134.385 34.565 134.439 34.2677 134.439 33.8489V33.6762Z" fill="#4E2771"/>
<path d="M141.335 33.6507C141.335 34.0087 141.281 34.338 141.169 34.6417C141.057 34.9455 140.897 35.2044 140.686 35.4218C140.475 35.6392 140.223 35.8055 139.929 35.9206C139.634 36.0357 139.305 36.0932 138.937 36.0932C138.57 36.0932 138.247 36.0357 137.956 35.9174C137.665 35.7991 137.412 35.6328 137.201 35.4122C136.987 35.1948 136.827 34.9359 136.719 34.6385C136.61 34.3412 136.552 34.0119 136.552 33.6507C136.552 33.2894 136.607 32.9537 136.719 32.6532C136.831 32.3527 136.99 32.0937 137.198 31.8795C137.406 31.6653 137.659 31.499 137.956 31.3839C138.253 31.2688 138.579 31.2113 138.937 31.2113C139.296 31.2113 139.631 31.2688 139.929 31.3871C140.226 31.5054 140.478 31.6717 140.689 31.8891C140.9 32.1065 141.06 32.3654 141.172 32.6628C141.281 32.9633 141.338 33.2926 141.338 33.6539L141.335 33.6507ZM140.13 33.6507C140.13 33.1615 140.021 32.7779 139.807 32.5061C139.593 32.2344 139.302 32.0969 138.937 32.0969C138.704 32.0969 138.496 32.1576 138.317 32.2791C138.138 32.4006 138.001 32.5796 137.905 32.8194C137.809 33.0592 137.761 33.3341 137.761 33.6507C137.761 33.9672 137.809 34.2389 137.905 34.4723C138.001 34.7057 138.135 34.8879 138.314 35.0126C138.49 35.1373 138.701 35.198 138.941 35.198C139.305 35.198 139.593 35.0606 139.81 34.7856C140.024 34.5107 140.133 34.1334 140.133 33.6475L140.13 33.6507Z" fill="#4E2771"/>
</svg>
