<svg width="59" height="43" viewBox="0 0 59 43" fill="none" xmlns="http://www.w3.org/2000/svg">
<path d="M16.2857 20.3571H16.2454L16.2057 20.3636L10.9609 21.2141C10.299 21.2077 9.88851 21.0385 9.63927 20.7893C9.38516 20.5352 9.21429 20.1134 9.21429 19.4286C9.21429 17.0636 10.2604 14.6654 12.444 12.2264C14.6305 9.78396 17.9348 7.32785 22.3849 4.86608L22.7749 4.65033L22.6052 4.23819L21.6052 1.80963L21.4076 1.32979L20.9355 1.54505C14.4044 4.52242 9.3339 8.28104 5.74999 12.8336L5.74995 12.8335L5.74592 12.8388C2.26645 17.3815 0.5 22.0093 0.5 26.7143C0.5 31.2826 1.71701 35.07 4.18732 38.0344L4.18725 38.0344L4.19358 38.0418C6.76279 41.0062 9.99489 42.5 13.8571 42.5C17.7659 42.5 20.8631 41.373 23.0756 39.0599C25.2634 36.7726 26.3571 33.9806 26.3571 30.7143C26.3571 27.3732 25.3218 24.786 23.1819 23.0482C21.1911 21.2602 18.8859 20.3571 16.2857 20.3571ZM47.7143 20.3571H47.674L47.6343 20.3636L42.3895 21.2141C41.7276 21.2077 41.3171 21.0385 41.0678 20.7893C40.8137 20.5352 40.6429 20.1134 40.6429 19.4286C40.6429 17.0636 41.689 14.6654 43.8725 12.2264C46.0591 9.78396 49.3633 7.32785 53.8135 4.86608L54.2035 4.65033L54.0338 4.23819L53.0338 1.80962L52.8362 1.32979L52.364 1.54505C45.833 4.52242 40.7625 8.28104 37.1786 12.8336L37.1785 12.8335L37.1745 12.8388C33.695 17.3815 31.9286 22.0093 31.9286 26.7143C31.9286 31.2827 33.1456 35.07 35.6159 38.0344L35.6158 38.0344L35.6222 38.0418C38.1914 41.0062 41.4235 42.5 45.2857 42.5C49.1945 42.5 52.2917 41.373 54.5042 39.0599C56.692 36.7726 57.7857 33.9806 57.7857 30.7143C57.7857 27.3732 56.7504 24.7861 54.6105 23.0482C52.6197 21.2603 50.3145 20.3571 47.7143 20.3571Z" stroke="#00CC99"/>
</svg>

