<svg width="125" height="304" viewBox="0 0 125 304" fill="none" xmlns="http://www.w3.org/2000/svg">
<path fill-rule="evenodd" clip-rule="evenodd" d="M51.6224 22.8852C51.6224 22.8852 61.3427 5.36601 42.7071 1.68638C24.0714 -1.99326 18.0087 9.88901 19.1959 19.0726C20.4838 29.0353 26.8245 31.9514 32.0253 33.6072" fill="#00CC99"/>
<path d="M51.6224 22.8852C51.6224 22.8852 61.3427 5.36601 42.7071 1.68638C24.0714 -1.99326 18.0087 9.88901 19.1959 19.0726C20.4838 29.0353 26.8245 31.9514 32.0253 33.6072" stroke="black" stroke-width="1.5" stroke-linecap="round" stroke-linejoin="round"/>
<path d="M71.8174 130.433C71.8174 130.433 132.188 176.085 123.91 198.161C115.631 220.238 74.2371 242.315 74.2371 242.315L71.8174 255.009L48.2309 229.069L71.8174 187.675C71.8174 187.675 51.4763 182.156 48.2309 172.221C44.9855 162.287 37.3563 116.83 37.3563 116.83" fill="#00CC99"/>
<path d="M61.9986 118.006C61.9986 118.006 69.4267 239.245 48.4469 296.647L52.8292 303.086H15.5142C15.5142 303.086 11.4376 148.877 11.4376 115.593L61.9986 118.006Z" fill="#00CC99"/>
<path d="M51.6221 24.202V39.9582L32.1035 44.7557L31 27.5002L34.5 27L37 16.5002L51.6221 15.5V24.202Z" fill="white"/>
<path d="M40.596 29.6534C40.8843 29.6534 41.1179 29.4197 41.1179 29.1315C41.1179 28.8433 40.8843 28.6096 40.596 28.6096C40.3078 28.6096 40.0742 28.8433 40.0742 29.1315C40.0742 29.4197 40.3078 29.6534 40.596 29.6534Z" fill="black"/>
<path d="M48.612 29.6534C48.9002 29.6534 49.1339 29.4197 49.1339 29.1315C49.1339 28.8433 48.9002 28.6096 48.612 28.6096C48.3237 28.6096 48.0901 28.8433 48.0901 29.1315C48.0901 29.4197 48.3237 29.6534 48.612 29.6534Z" fill="black"/>
<path d="M46.2601 32.2448V24.2019H50.2893" stroke="black" stroke-width="1.5" stroke-linecap="round" stroke-linejoin="round"/>
<path d="M39.6131 24.202H43.6423" stroke="black" stroke-width="1.5" stroke-linecap="round" stroke-linejoin="round"/>
<path d="M33.3892 28.3231V31.116C31.8826 31.116 30.6613 29.8947 30.6613 28.3881C30.6613 28.3044 30.665 28.2216 30.6724 28.1398C30.8253 26.4459 33.3892 26.6222 33.3892 28.3231Z" fill="white"/>
<path d="M33.3892 31.1158C31.8826 31.1158 30.6613 29.8945 30.6613 28.3879" stroke="black" stroke-width="1.5" stroke-linecap="round" stroke-linejoin="round"/>
<path d="M44.4981 34.2275C43.7658 34.2275 43.0636 33.9366 42.5458 33.4189C42.028 32.9011 41.7371 32.1988 41.7371 31.4666" stroke="black" stroke-width="1.5" stroke-linecap="round" stroke-linejoin="round"/>
<path d="M51.6222 39.958L32.1035 44.7554" stroke="black" stroke-width="1.5" stroke-linecap="round" stroke-linejoin="round"/>
<path d="M46.2603 32.2512L44.4981 32.6843" stroke="black" stroke-width="1.5" stroke-linecap="round" stroke-linejoin="round"/>
<path d="M33.7914 27.6278C33.7914 27.6278 35.9378 26.1151 35.5698 22.8851C35.2019 19.6552 35.5645 16.6726 40.596 16.0788C44.2591 15.7031 47.9397 15.5253 51.6219 15.5463" stroke="#00CC99" stroke-width="1.5" stroke-linecap="round" stroke-linejoin="round"/>
<path d="M11.4376 72.9703V115.593L71.8176 130.433V82.9634C71.8176 66.1315 60.3266 51.4742 43.9812 47.4568H43.9811C36.1424 45.5302 27.8532 47.3139 21.5007 52.2941C15.1481 57.2743 11.4376 64.8983 11.4376 72.9703V72.9703Z" fill="#A65CCC"/>
<path d="M61.9986 118.006C61.9986 118.006 69.4267 239.245 48.4468 296.647" stroke="black" stroke-width="1.5" stroke-linecap="round" stroke-linejoin="round"/>
<path d="M20.2552 53.3359C20.2552 53.3359 4.1092 64.6081 1.1655 94.0451C-1.77821 123.482 35.0181 149.24 74.0222 106.556C74.0222 106.556 85.4291 98.0927 85.7971 91.1014C86.165 84.1101 71.8177 92.6326 71.8177 92.6326C71.8177 92.6326 75.8685 90.3655 71.8177 89.9975C67.7669 89.6296 67.0309 93.7998 67.0309 93.7998L32.1035 99.7486L37.3565 77.6708" stroke="black" stroke-width="1.5" stroke-linecap="round" stroke-linejoin="round"/>
<path d="M11.8062 121.489V144.821C39.3731 151.258 55.1306 122.346 55.1306 122.346C37.479 132.734 21.7085 130.153 11.8062 121.489Z" fill="black"/>
<path d="M71.8175 89.9975C73.636 90.1626 73.8199 90.7106 73.4724 91.2644L74.0273 91.4237C76.0461 90.3826 79.0854 88.9765 81.5712 88.5072L82.8531 76.9954H71.3281L69.8438 90.2228C70.4768 90.002 71.151 89.9251 71.8175 89.9975Z" fill="#00CC99"/>
<path d="M50.9168 49.9233C50.9168 49.9233 83.4668 61.0511 88.1276 63.0136C88.1276 63.0136 87.8962 36.3996 85.8041 34.6201C83.7121 32.8406 79.7871 26.1118 83.9574 24.2021C83.9574 24.2021 80.5231 15.4201 82.8535 15.5445C85.1839 15.669 85.6745 19.3486 89.1089 20.0845C92.5432 20.8205 128.849 73.0712 109.96 88.559C96.6321 99.4872 82.8535 97.8507 82.8535 97.8507" stroke="white" stroke-width="1.5" stroke-linecap="round" stroke-linejoin="round"/>
</svg>

