<svg width="50" height="50" viewBox="0 0 50 50" fill="none" xmlns="http://www.w3.org/2000/svg">
<circle cx="25" cy="25" r="24.5" fill="white" stroke="#00CC99"/>
<path fill-rule="evenodd" clip-rule="evenodd" d="M25 17.5C22.2386 17.5 20 19.7386 20 22.5V26.6667C20 27.2739 19.8377 27.8431 19.5541 28.3334H30.4459C30.1623 27.8431 30 27.2739 30 26.6667V22.5C30 19.7386 27.7614 17.5 25 17.5ZM33.3333 28.3334C32.4129 28.3334 31.6667 27.5872 31.6667 26.6667V22.5C31.6667 18.8181 28.6819 15.8334 25 15.8334C21.3181 15.8334 18.3333 18.8181 18.3333 22.5V26.6667C18.3333 27.5872 17.5871 28.3334 16.6667 28.3334C16.2064 28.3334 15.8333 28.7065 15.8333 29.1667C15.8333 29.6269 16.2064 30 16.6667 30H33.3333C33.7936 30 34.1667 29.6269 34.1667 29.1667C34.1667 28.7065 33.7936 28.3334 33.3333 28.3334Z" fill="#00CC99"/>
<path d="M22.8362 32.084C22.985 31.8258 23.2603 31.6666 23.5583 31.6666H26.4417C26.7397 31.6666 27.015 31.8258 27.1638 32.084C27.3125 32.3423 27.3121 32.6603 27.1625 32.9181C26.7153 33.6891 25.8913 34.1637 25 34.1637C24.1087 34.1637 23.2848 33.6891 22.8375 32.9181C22.688 32.6603 22.6875 32.3423 22.8362 32.084Z" fill="#00CC99"/>
</svg>
