<svg width="50" height="50" viewBox="0 0 50 50" fill="none" xmlns="http://www.w3.org/2000/svg">
<circle cx="25" cy="25" r="24.5" fill="white" stroke="#00CC99"/>
<path fill-rule="evenodd" clip-rule="evenodd" d="M25 15C25.4602 15 25.8333 15.3731 25.8333 15.8333V34.1667C25.8333 34.6269 25.4602 35 25 35C24.5398 35 24.1667 34.6269 24.1667 34.1667V15.8333C24.1667 15.3731 24.5398 15 25 15Z" fill="#00CC99"/>
<path fill-rule="evenodd" clip-rule="evenodd" d="M19.1667 22.0834C19.1667 20.0123 20.8456 18.3334 22.9167 18.3334H29.1667C29.6269 18.3334 30 18.7065 30 19.1667C30 19.6269 29.6269 20 29.1667 20H22.9167C21.7661 20 20.8333 20.9328 20.8333 22.0834C20.8333 23.234 21.7661 24.1667 22.9167 24.1667H27.0833C29.1544 24.1667 30.8333 25.8456 30.8333 27.9167C30.8333 29.9878 29.1544 31.6667 27.0833 31.6667H20C19.5398 31.6667 19.1667 31.2936 19.1667 30.8334C19.1667 30.3731 19.5398 30 20 30H27.0833C28.2339 30 29.1667 29.0673 29.1667 27.9167C29.1667 26.7661 28.2339 25.8334 27.0833 25.8334H22.9167C20.8456 25.8334 19.1667 24.1544 19.1667 22.0834Z" fill="#00CC99"/>
</svg>
