<svg width="50" height="50" viewBox="0 0 50 50" fill="none" xmlns="http://www.w3.org/2000/svg">
<circle cx="25" cy="25" r="24.5" fill="white" stroke="#00CC99"/>
<path fill-rule="evenodd" clip-rule="evenodd" d="M16.6667 24.8334C16.6667 23.4527 17.786 22.3334 19.1667 22.3334H30.8333C32.214 22.3334 33.3333 23.4527 33.3333 24.8334V30.6667C33.3333 32.0474 32.214 33.1667 30.8333 33.1667H19.1667C17.786 33.1667 16.6667 32.0474 16.6667 30.6667V24.8334ZM19.1667 24C18.7064 24 18.3333 24.3731 18.3333 24.8334V30.6667C18.3333 31.1269 18.7064 31.5 19.1667 31.5H30.8333C31.2936 31.5 31.6667 31.1269 31.6667 30.6667V24.8334C31.6667 24.3731 31.2936 24 30.8333 24H19.1667Z" fill="#00CC99"/>
<path fill-rule="evenodd" clip-rule="evenodd" d="M25 16.5C23.1591 16.5 21.6667 17.9924 21.6667 19.8334V23.1667C21.6667 23.6269 21.2936 24 20.8333 24C20.3731 24 20 23.6269 20 23.1667V19.8334C20 17.072 22.2386 14.8334 25 14.8334C27.7614 14.8334 30 17.072 30 19.8334V23.1667C30 23.6269 29.6269 24 29.1667 24C28.7064 24 28.3333 23.6269 28.3333 23.1667V19.8334C28.3333 17.9924 26.8409 16.5 25 16.5Z" fill="#00CC99"/>
</svg>
