<svg width="50" height="50" viewBox="0 0 50 50" fill="none" xmlns="http://www.w3.org/2000/svg">
<circle cx="25" cy="25" r="24.5" fill="white" stroke="#00CC99"/>
<path fill-rule="evenodd" clip-rule="evenodd" d="M22.4304 17.025C22.6145 17.4468 22.4218 17.938 22 18.1221C18.911 19.4701 17.1005 22.713 17.5741 26.0498C18.0476 29.3867 20.6888 31.9979 24.0308 32.4333C27.3728 32.8686 30.5949 31.0213 31.9075 27.9171C32.0867 27.4932 32.5757 27.2949 32.9996 27.4741C33.4235 27.6534 33.6218 28.1423 33.4425 28.5662C31.8382 32.3602 27.9002 34.6181 23.8155 34.086C19.7308 33.5538 16.5027 30.3624 15.9239 26.284C15.3452 22.2056 17.558 18.2421 21.3334 16.5945C21.7552 16.4105 22.2464 16.6032 22.4304 17.025Z" fill="#00CC99"/>
<path fill-rule="evenodd" clip-rule="evenodd" d="M24.4107 16.0775C24.567 15.9212 24.779 15.8334 25 15.8334C27.4311 15.8334 29.7627 16.7991 31.4818 18.5182C33.2009 20.2373 34.1667 22.5689 34.1667 25C34.1667 25.4603 33.7936 25.8334 33.3333 25.8334H25C24.5398 25.8334 24.1667 25.4603 24.1667 25V16.6667C24.1667 16.4457 24.2545 16.2337 24.4107 16.0775ZM25.8333 17.5465V24.1667H32.4536C32.2655 22.4842 31.512 20.9054 30.3033 19.6967C29.0946 18.4881 27.5158 17.7345 25.8333 17.5465Z" fill="#00CC99"/>
</svg>
