<svg width="50" height="50" viewBox="0 0 50 50" fill="none" xmlns="http://www.w3.org/2000/svg">
<circle cx="25" cy="25" r="24.5" fill="white" stroke="#00CC99"/>
<path fill-rule="evenodd" clip-rule="evenodd" d="M28.5774 15.2441C28.9029 14.9186 29.4305 14.9186 29.7559 15.2441L33.0893 18.5774C33.4147 18.9028 33.4147 19.4305 33.0893 19.7559L29.7559 23.0893C29.4305 23.4147 28.9029 23.4147 28.5774 23.0893C28.252 22.7638 28.252 22.2362 28.5774 21.9107L31.3215 19.1667L28.5774 16.4226C28.252 16.0972 28.252 15.5695 28.5774 15.2441Z" fill="#00CC99"/>
<path fill-rule="evenodd" clip-rule="evenodd" d="M20.8333 20C19.4526 20 18.3333 21.1193 18.3333 22.5V24.1667C18.3333 24.6269 17.9602 25 17.5 25C17.0398 25 16.6667 24.6269 16.6667 24.1667V22.5C16.6667 20.1989 18.5321 18.3334 20.8333 18.3334H32.5C32.9602 18.3334 33.3333 18.7065 33.3333 19.1667C33.3333 19.6269 32.9602 20 32.5 20H20.8333Z" fill="#00CC99"/>
<path fill-rule="evenodd" clip-rule="evenodd" d="M21.4226 26.9107C21.748 27.2361 21.748 27.7638 21.4226 28.0892L18.6785 30.8333L21.4226 33.5774C21.748 33.9028 21.748 34.4304 21.4226 34.7559C21.0971 35.0813 20.5695 35.0813 20.2441 34.7559L16.9107 31.4225C16.5853 31.0971 16.5853 30.5695 16.9107 30.244L20.2441 26.9107C20.5695 26.5853 21.0971 26.5853 21.4226 26.9107Z" fill="#00CC99"/>
<path fill-rule="evenodd" clip-rule="evenodd" d="M32.5 25C32.9602 25 33.3333 25.3731 33.3333 25.8333V27.5C33.3333 29.8012 31.4678 31.6667 29.1667 31.6667H17.5C17.0398 31.6667 16.6667 31.2936 16.6667 30.8333C16.6667 30.3731 17.0398 30 17.5 30H29.1667C30.5474 30 31.6667 28.8807 31.6667 27.5V25.8333C31.6667 25.3731 32.0398 25 32.5 25Z" fill="#00CC99"/>
</svg>
