<svg width="50" height="50" viewBox="0 0 50 50" fill="none" xmlns="http://www.w3.org/2000/svg">
<circle cx="25" cy="25" r="24.5" fill="white" stroke="#00CC99"/>
<path fill-rule="evenodd" clip-rule="evenodd" d="M34.7559 19.4107C35.0814 19.7361 35.0814 20.2638 34.7559 20.5892L26.8393 28.5059C26.5138 28.8313 25.9862 28.8313 25.6607 28.5059L22.0833 24.9285L16.4226 30.5892C16.0972 30.9147 15.5695 30.9147 15.2441 30.5892C14.9186 30.2638 14.9186 29.7361 15.2441 29.4107L21.4941 23.1607C21.8195 22.8353 22.3472 22.8353 22.6726 23.1607L26.25 26.7381L33.5774 19.4107C33.9028 19.0853 34.4305 19.0853 34.7559 19.4107Z" fill="#00CC99"/>
<path fill-rule="evenodd" clip-rule="evenodd" d="M28.3333 20C28.3333 19.5397 28.7064 19.1666 29.1667 19.1666H34.1667C34.6269 19.1666 35 19.5397 35 20V25C35 25.4602 34.6269 25.8333 34.1667 25.8333C33.7064 25.8333 33.3333 25.4602 33.3333 25V20.8333H29.1667C28.7064 20.8333 28.3333 20.4602 28.3333 20Z" fill="#00CC99"/>
</svg>

