<svg width="50" height="50" viewBox="0 0 50 50" fill="none" xmlns="http://www.w3.org/2000/svg">
<circle cx="25" cy="25" r="24.5" fill="white" stroke="#00CC99"/>
<path fill-rule="evenodd" clip-rule="evenodd" d="M15 30.8333C15 28.5321 16.8655 26.6666 19.1667 26.6666H25.8333C28.1345 26.6666 30 28.5321 30 30.8333V32.5C30 32.9602 29.6269 33.3333 29.1667 33.3333C28.7064 33.3333 28.3333 32.9602 28.3333 32.5V30.8333C28.3333 29.4526 27.214 28.3333 25.8333 28.3333H19.1667C17.786 28.3333 16.6667 29.4526 16.6667 30.8333V32.5C16.6667 32.9602 16.2936 33.3333 15.8333 33.3333C15.3731 33.3333 15 32.9602 15 32.5V30.8333Z" fill="#00CC99"/>
<path fill-rule="evenodd" clip-rule="evenodd" d="M18.3333 20.8333C18.3333 18.5321 20.1988 16.6666 22.5 16.6666C24.8012 16.6666 26.6667 18.5321 26.6667 20.8333C26.6667 23.1345 24.8012 25 22.5 25C20.1988 25 18.3333 23.1345 18.3333 20.8333ZM22.5 18.3333C21.1193 18.3333 20 19.4526 20 20.8333C20 22.214 21.1193 23.3333 22.5 23.3333C23.8807 23.3333 25 22.214 25 20.8333C25 19.4526 23.8807 18.3333 22.5 18.3333Z" fill="#00CC99"/>
<path fill-rule="evenodd" clip-rule="evenodd" d="M30.8598 27.4C30.9749 26.9544 31.4294 26.6864 31.875 26.8014C33.7135 27.2762 34.9986 28.9339 35 30.8327L35 32.5C35 32.9602 34.6269 33.3333 34.1667 33.3333C33.7064 33.3333 33.3333 32.9602 33.3333 32.5L33.3333 30.8339C33.3333 30.8339 33.3333 30.834 33.3333 30.8339C33.3324 29.6947 32.5614 28.7 31.4583 28.4152C31.0127 28.3001 30.7447 27.8456 30.8598 27.4Z" fill="#00CC99"/>
<path fill-rule="evenodd" clip-rule="evenodd" d="M27.526 17.4016C27.6402 16.9558 28.0942 16.6869 28.54 16.801C30.3837 17.2731 31.6732 18.9343 31.6732 20.8375C31.6732 22.7406 30.3837 24.4019 28.54 24.8739C28.0942 24.9881 27.6402 24.7192 27.526 24.2733C27.4119 23.8275 27.6808 23.3735 28.1266 23.2594C29.2328 22.9761 30.0065 21.9794 30.0065 20.8375C30.0065 19.6956 29.2328 18.6988 28.1266 18.4156C27.6808 18.3014 27.4119 17.8475 27.526 17.4016Z" fill="#00CC99"/>
</svg>

