<svg width="50" height="50" viewBox="0 0 50 50" fill="none" xmlns="http://www.w3.org/2000/svg">
<circle cx="25" cy="25" r="24.5" fill="white" stroke="#00CC99"/>
<path fill-rule="evenodd" clip-rule="evenodd" d="M15 30.8333C15 28.5321 16.8655 26.6666 19.1667 26.6666H25C27.3012 26.6666 29.1667 28.5321 29.1667 30.8333V32.5C29.1667 32.9602 28.7936 33.3333 28.3333 33.3333C27.8731 33.3333 27.5 32.9602 27.5 32.5V30.8333C27.5 29.4526 26.3807 28.3333 25 28.3333H19.1667C17.786 28.3333 16.6667 29.4526 16.6667 30.8333V32.5C16.6667 32.9602 16.2936 33.3333 15.8333 33.3333C15.3731 33.3333 15 32.9602 15 32.5V30.8333Z" fill="#00CC99"/>
<path fill-rule="evenodd" clip-rule="evenodd" d="M17.9167 20.8333C17.9167 18.5321 19.7821 16.6666 22.0833 16.6666C24.3845 16.6666 26.25 18.5321 26.25 20.8333C26.25 23.1345 24.3845 25 22.0833 25C19.7821 25 17.9167 23.1345 17.9167 20.8333ZM22.0833 18.3333C20.7026 18.3333 19.5833 19.4526 19.5833 20.8333C19.5833 22.214 20.7026 23.3333 22.0833 23.3333C23.464 23.3333 24.5833 22.214 24.5833 20.8333C24.5833 19.4526 23.464 18.3333 22.0833 18.3333Z" fill="#00CC99"/>
<path fill-rule="evenodd" clip-rule="evenodd" d="M31.6667 20.8334C32.1269 20.8334 32.5 21.2065 32.5 21.6667V26.6667C32.5 27.1269 32.1269 27.5 31.6667 27.5C31.2064 27.5 30.8333 27.1269 30.8333 26.6667V21.6667C30.8333 21.2065 31.2064 20.8334 31.6667 20.8334Z" fill="#00CC99"/>
<path fill-rule="evenodd" clip-rule="evenodd" d="M28.3333 24.1667C28.3333 23.7065 28.7064 23.3334 29.1667 23.3334H34.1667C34.6269 23.3334 35 23.7065 35 24.1667C35 24.6269 34.6269 25 34.1667 25H29.1667C28.7064 25 28.3333 24.6269 28.3333 24.1667Z" fill="#00CC99"/>
</svg>

