<svg width="161" height="56" viewBox="0 0 161 56" fill="none" xmlns="http://www.w3.org/2000/svg">
<path d="M89.5341 41.7566H85.1405V15.5186H91.7653C93.7411 15.5186 95.1665 15.618 96.121 15.8175C98.3082 16.2844 100.05 17.2918 101.299 18.8142C102.544 20.3308 103.175 22.1026 103.175 24.0811C103.175 26.0602 102.544 27.8333 101.299 29.3502C100.05 30.8718 98.3081 31.8824 96.121 32.3471C95.1665 32.5471 93.7442 32.6443 91.7653 32.6443H89.5341V41.7566H89.5341ZM89.5341 28.939H91.7653C92.4861 28.939 93.0169 28.937 93.3636 28.9308C93.6872 28.9256 94.0703 28.8947 94.5039 28.8396C94.9192 28.7855 95.2876 28.7075 95.5986 28.6041C96.6502 28.2602 97.4201 27.6905 97.9565 26.8608C98.5034 26.0156 98.78 25.0807 98.78 24.0812C98.78 23.0835 98.5034 22.1491 97.9565 21.3028C97.4201 20.4716 96.6502 19.9041 95.6027 19.5598C95.2876 19.4581 94.9192 19.3764 94.5039 19.3234C94.0704 19.2699 93.6873 19.2383 93.3636 19.2321C93.017 19.2276 92.4862 19.2245 91.7654 19.2245H89.5342V28.939H89.5341Z" fill="white"/>
<path d="M120.556 30.9991C121.88 30.4109 122.977 29.5275 123.821 28.3677C124.801 27.022 125.3 25.4601 125.3 23.7288C125.3 22.0109 124.808 20.4594 123.842 19.118C122.872 17.7767 121.567 16.8 119.963 16.2158C119.358 15.9884 118.721 15.8232 118.08 15.7218C117.456 15.6225 116.903 15.5652 116.439 15.5462C115.984 15.528 115.314 15.5187 114.383 15.5187H107.265V41.7567H111.658V31.9398H116.363L121.385 41.7567H126.192L120.556 30.9991ZM118.509 27.8506C118.198 27.964 117.835 28.0519 117.431 28.1079C117.001 28.1691 116.621 28.2058 116.298 28.2175C115.961 28.2289 115.425 28.2322 114.712 28.2322H111.987V19.2245H114.712C115.419 19.2245 115.953 19.2293 116.298 19.2414C116.621 19.2517 117.001 19.2895 117.431 19.3496C117.835 19.408 118.198 19.4935 118.5 19.6052C119.013 19.7982 119.459 20.0622 119.822 20.3879C120.192 20.7157 120.473 21.073 120.662 21.4494C120.864 21.8515 121.012 22.2467 121.098 22.6184C121.188 22.9901 121.233 23.3636 121.233 23.7288C121.233 24.095 121.188 24.468 121.098 24.8391C121.012 25.2116 120.864 25.606 120.662 26.0094C120.473 26.3849 120.192 26.7419 119.825 27.0706C119.459 27.3977 119.013 27.6589 118.509 27.8506Z" fill="white"/>
<path d="M134.735 41.7566H130.341V15.5186H134.735V41.7566Z" fill="white"/>
<path d="M160.736 41.7567H155.741L149.758 31.8315L143.773 41.7567H138.778L147.255 28.3918L139.073 15.5187H144.069L149.758 24.9519L155.442 15.5187H160.441L152.259 28.3918L160.736 41.7567Z" fill="white"/>
<path d="M58.0529 41.7566H62.6749L69.9552 21.7655L77.2355 41.7566H81.8562L71.8991 15.5186H68.0099L58.0529 41.7566Z" fill="white"/>
<path d="M47.8257 30.6599L61.3553 1.93726L28.1245 19.9906L47.8257 30.6599Z" fill="white"/>
<path d="M27.3175 4.27461V18.7576L61.3553 0.260975L27.3175 4.27461Z" fill="white"/>
<path d="M25.7757 4.26254H0.551392L25.7757 18.7198V4.26254Z" fill="white"/>
<path d="M27.3175 55.1953L47.0448 31.9082L27.3175 21.2248V55.1953Z" fill="white"/>
<path d="M14.4802 27.2964L25.7681 55.1999L25.7758 21.2656L14.531 27.3774L14.4802 27.2964Z" fill="white"/>
<path d="M25.042 19.9927L0.528809 5.89177L13.8147 26.0909L25.042 19.9927Z" fill="white"/>
</svg>
