<svg xmlns="http://www.w3.org/2000/svg" width="113" height="92" viewBox="0 0 113.775 92">
  <g id="Ativo_1" data-name="Ativo 1" transform="translate(-0.129)">
    <g id="Camada_1" data-name="Camada 1" transform="translate(0.129)">
      <path id="Path_104" data-name="Path 104" d="M120.626,79.861l-1.488-1.771L114.3,83.131a25.636,25.636,0,0,0,6.326-3.27Z" transform="translate(-49.703 -33.908)" fill="#3d3e61"/>
      <path id="Path_105" data-name="Path 105" d="M129.29,67.952l1.782,2.116a25.133,25.133,0,0,0,4.5-6.648Z" transform="translate(-56.212 -27.538)" fill="#3d3e61"/>
      <path id="Path_106" data-name="Path 106" d="M81.5,40.838A15.627,15.627,0,1,1,94.989,27.825l9.335,4.1a25.149,25.149,0,0,0,.883-6.6,25.641,25.641,0,0,0-51.277,0A25.471,25.471,0,0,0,79.56,50.649a25.884,25.884,0,0,0,4.526-.4Z" transform="translate(-23.49)" fill="#3d3e61"/>
      <path id="Path_107" data-name="Path 107" d="M51.68,156.271l1.827-4.407h.69l1.941,4.407h-.707l-.566-1.33H52.879l-.526,1.33Zm1.375-1.811H54.69l-.5-1.216a6.7,6.7,0,0,1-.339-.917,5.373,5.373,0,0,1-.255.849Zm8.7-2.6h.639v2.552a3.208,3.208,0,0,1-.158,1.058,1.313,1.313,0,0,1-.566.622,2.218,2.218,0,0,1-1.132.243,2.506,2.506,0,0,1-1.1-.209,1.33,1.33,0,0,1-.611-.611,2.92,2.92,0,0,1-.175-1.1v-2.552h.622v2.552a2.625,2.625,0,0,0,.113.832.849.849,0,0,0,.4.419,1.7,1.7,0,0,0,1.7-.147,1.573,1.573,0,0,0,.289-1.1Zm4.871,4.407v-3.881H65.055v-.526h3.779v.526H67.267v3.881Zm4.526-2.144a2.331,2.331,0,0,1,.639-1.7,2.489,2.489,0,0,1,2.829-.317,1.986,1.986,0,0,1,.8.8,2.427,2.427,0,0,1,.289,1.188A2.331,2.331,0,0,1,75.4,155.3a1.963,1.963,0,0,1-.809.741,2.439,2.439,0,0,1-1.132.272,2.574,2.574,0,0,1-1.233-.272,2.15,2.15,0,0,1-.8-.82A2.445,2.445,0,0,1,71.149,154.126Zm.656,0a1.7,1.7,0,0,0,.464,1.256,1.579,1.579,0,0,0,1.132.447,1.539,1.539,0,0,0,1.171-.464,1.7,1.7,0,0,0,.464-1.3,2.133,2.133,0,0,0-.192-.945,1.533,1.533,0,0,0-.566-.628,1.7,1.7,0,0,0-.849-.209,1.658,1.658,0,0,0-1.132.419,1.816,1.816,0,0,0-.492,1.437Zm6.688,2.133v-4.407h.945l1.132,3.129c.113.289.175.5.221.639.068-.158.147-.385.26-.707l1.132-3.061h.849v4.407h-.617v-3.683l-1.381,3.683h-.566l-1.381-3.751v3.751Zm7.027,0,1.827-4.407h.673l1.958,4.407h-.724l-.566-1.33H86.7l-.526,1.33Zm1.364-1.811H88.5l-.5-1.216c-.141-.368-.255-.673-.334-.917a6.076,6.076,0,0,1-.26.849Zm8.979.26.628.158a2.054,2.054,0,0,1-.707,1.092,2.093,2.093,0,0,1-1.267.368,2.393,2.393,0,0,1-1.25-.289,1.884,1.884,0,0,1-.741-.837,2.936,2.936,0,0,1-.255-1.183,2.354,2.354,0,0,1,.289-1.188,1.81,1.81,0,0,1,.82-.786,2.444,2.444,0,0,1,1.132-.255,2.088,2.088,0,0,1,1.2.334,1.7,1.7,0,0,1,.673.945l-.622.13a1.33,1.33,0,0,0-.481-.707,1.357,1.357,0,0,0-.786-.209,1.647,1.647,0,0,0-.917.243,1.25,1.25,0,0,0-.526.656,2.484,2.484,0,0,0-.147.837,2.654,2.654,0,0,0,.175.979,1.171,1.171,0,0,0,.566.622,1.59,1.59,0,0,0,.815.209,1.332,1.332,0,0,0,1.4-1.109Zm-1.907,2,.175-.532h.43l-.107.323a.786.786,0,0,1,.413.158.4.4,0,0,1,.147.289.515.515,0,0,1-.226.4,1.234,1.234,0,0,1-.707.164,2.089,2.089,0,0,1-.481-.034l.051-.351h.306a.815.815,0,0,0,.413-.079.141.141,0,0,0,.1-.141.125.125,0,0,0,0-.1.255.255,0,0,0-.147-.068,1.5,1.5,0,0,0-.362-.023Zm4.764-.453,1.844-4.407h.673l1.952,4.407h-.719l-.566-1.33H99.913l-.526,1.341Zm1.375-1.811h1.624l-.5-1.216c-.147-.368-.272-.673-.339-.917a5.374,5.374,0,0,1-.255.849Zm-.221-2.869a.753.753,0,0,1,.175-.5.707.707,0,0,1,.481-.175,1.268,1.268,0,0,1,.566.158.854.854,0,0,0,.306.1.221.221,0,0,0,.158-.062c.051-.034.068-.1.085-.209h.413a.707.707,0,0,1-.175.515.65.65,0,0,1-.447.175,1.4,1.4,0,0,1-.566-.175.837.837,0,0,0-.317-.1.221.221,0,0,0-.175.062.283.283,0,0,0-.068.209Zm5.613,2.535a2.325,2.325,0,0,1,.622-1.7,2.489,2.489,0,0,1,2.829-.317,2.1,2.1,0,0,1,.82.8,2.625,2.625,0,0,1,.272,1.188,2.5,2.5,0,0,1-.289,1.205,2.008,2.008,0,0,1-.837.786,2.348,2.348,0,0,1-1.132.272,2.461,2.461,0,0,1-1.2-.289,2.037,2.037,0,0,1-.8-.82,2.263,2.263,0,0,1-.283-1.115Zm.639,0a1.7,1.7,0,0,0,.464,1.256,1.59,1.59,0,0,0,1.171.447,1.556,1.556,0,0,0,1.171-.464,1.76,1.76,0,0,0,.453-1.3,2.218,2.218,0,0,0-.192-.945,1.612,1.612,0,0,0-.566-.628,1.7,1.7,0,0,0-.854-.209,1.658,1.658,0,0,0-1.132.419,1.833,1.833,0,0,0-.515,1.448Z" transform="translate(-22.513 -65.518)" fill="#ed3237"/>
      <g id="Group_31" data-name="Group 31" transform="translate(32.341 0.526)">
        <path id="Path_108" data-name="Path 108" d="M81.121.93c12.091,0,22.066,7.972,23.639,18.264A38.247,38.247,0,0,0,92.77,14.322,15.191,15.191,0,0,0,81.11,9.14a14.945,14.945,0,0,0-12.64,6.5,34.4,34.4,0,0,0-11.18,6.416s0-.034,0-.051C57.273,10.362,67.955.93,81.121.93Z" transform="translate(-57.29 -0.93)" fill="#c4cbdd"/>
      </g>
      <g id="Group_32" data-name="Group 32" transform="translate(34.259 34.971)">
        <path id="Path_109" data-name="Path 109" d="M74.717,74.365A25.143,25.143,0,0,0,80.234,75.6l-.447-.226a20.317,20.317,0,0,1-6.127-1.748c-4.2-1.907-7.265-4.73-7.887-7.027A42.671,42.671,0,0,1,60.68,61.81,23.763,23.763,0,0,0,74.717,74.365Z" transform="translate(-60.68 -61.81)" fill="#fefefe"/>
      </g>
      <path id="Path_110" data-name="Path 110" d="M129.49,58.9l1.46-1.827-1.46-1.4,1.584,1.239,1.624-1.7-1.448,1.844,1.8,1.714L131.108,57.2Z" transform="translate(-56.299 -23.973)" fill="#fefefe"/>
      <path id="Path_111" data-name="Path 111" d="M120.169,71.949l-9.958-12.3-7.316,7.57L94.72,37.47l27.888,12.2-9.143,6.608,9.782,12.187Z" transform="translate(-41.202 -16.27)" fill="#b13a3f"/>
      <g id="Group_33" data-name="Group 33" transform="translate(53.518 21.206)">
        <path id="Path_112" data-name="Path 112" d="M120.186,71.948l-9.975-12.3-7.3,7.582L94.72,37.48l27.9,12.2-9.16,6.591,9.782,12.193Z" transform="translate(-94.72 -37.48)" fill="#db393e"/>
      </g>
      <g id="Group_34" data-name="Group 34" transform="translate(53.518 21.2)">
        <path id="Path_113" data-name="Path 113" d="M120.186,71.949l-9.975-12.3-7.316,7.57L94.72,37.47l27.888,12.2-9.143,6.608,9.782,12.17Z" transform="translate(-94.72 -37.47)" fill="#e75653"/>
      </g>
      <g id="Group_35" data-name="Group 35" transform="translate(53.558 21.081)">
        <path id="Path_114" data-name="Path 114" d="M95.831,41.011,94.79,37.26l27.9,12.2-9.16,6.591,9.7,12.074Z" transform="translate(-94.79 -37.26)" fill="#f4d5d2"/>
      </g>
      <path id="Path_115" data-name="Path 115" d="M12.294,108.5a11.814,11.814,0,0,1,6.365,3.067,9.579,9.579,0,0,1,3.163,6.224v.322a2.829,2.829,0,0,0,.028.368v.113a2.625,2.625,0,0,0,0,.368,2.96,2.96,0,0,1,0,.385,11.61,11.61,0,0,1-.656,3.9,8.368,8.368,0,0,1-2.2,3.395l3.208,3.525H16.175l-.945-1.013a9.083,9.083,0,0,1-1.556.566,10.334,10.334,0,0,1-1.607.289c-.226,0-.447.045-.656.045s-.436.034-.656.034H10.37a1.959,1.959,0,0,1-.419-.051,10.751,10.751,0,0,1-1.9-.306,8.7,8.7,0,0,1-1.827-.622,12.883,12.883,0,0,1-4.085-3.576,11.1,11.1,0,0,1-2.009-5.052c0-.051,0-.1,0-.147a.73.73,0,0,1,0-.192.407.407,0,0,0,0-.141v-.164a11.553,11.553,0,0,1,2.308-7.038,10.467,10.467,0,0,1,6.224-4.023c.306-.051.594-.085.9-.113s.605-.051.911-.079a3.777,3.777,0,0,1,.453-.034h.447Zm-.752,4.441h-.673a5.845,5.845,0,0,0-4.526,2.088,6.7,6.7,0,0,0-1.76,4.5,3.861,3.861,0,0,0,.034.622c.034.209.062.436.113.656a6.145,6.145,0,0,0,.419,1.256,9.125,9.125,0,0,0,.724,1.188,6.15,6.15,0,0,0,2.393,1.935,6.654,6.654,0,0,0,2.829.645,3.322,3.322,0,0,0,.4,0,3.392,3.392,0,0,1,.43,0,6.864,6.864,0,0,0,2.15-.673,6.478,6.478,0,0,0,1.844-1.409,5.3,5.3,0,0,0,.837-1.171,4.526,4.526,0,0,0,.509-1.347c.051-.277.1-.566.13-.82a4.413,4.413,0,0,0,.062-.769,6.648,6.648,0,0,0-1.7-4.441,6.1,6.1,0,0,0-4.221-2.263Zm13.579-4.215h4.413v14.337a3.016,3.016,0,0,0,1.132,2.184A3.4,3.4,0,0,0,32.8,126a1.2,1.2,0,0,0,.238,0,1.466,1.466,0,0,1,.289,0,3.83,3.83,0,0,0,1.539-.622A3.542,3.542,0,0,0,36.034,124V108.726h4.589v14.145a7.921,7.921,0,0,1-2.484,5.149,7.355,7.355,0,0,1-5.267,2.116h-.9a.678.678,0,0,1-.192,0,1.3,1.3,0,0,0-.209,0,7.729,7.729,0,0,1-4.357-2.229,5.975,5.975,0,0,1-1.986-4.475Zm26.122-.226h.3a3.282,3.282,0,0,1,2.2.849,3.864,3.864,0,0,1,1.233,1.958l5.5,18.507-4.589.051-1.132-4.028H48.617l-1.171,4.028H42.863l5.709-18.818a6.936,6.936,0,0,1,.5-1.013,6.1,6.1,0,0,1,.673-.945l.385-.192.368-.141a3.4,3.4,0,0,1,.385-.13l.368-.1Zm.453,4.221L49.7,121.943H53.54Zm11.372-3.938h4.413v17.064H73.7v4.028H65.783a2.32,2.32,0,0,1-1.7-.741,5.924,5.924,0,0,1-1.058-1.6Zm13.183,0h4.526v21.16H76.25Zm7.3-.062H96v4.108H92.036v17.047H87.56V112.743H83.532Zm14-.079h4.86L105.49,116l3.395-7.355h4.668l-6,12.5v8.741h-4.221v-8.968c-.7-1.652-1.443-3.3-2.212-4.922s-1.556-3.253-2.342-4.86c-.192-.4-.4-.8-.566-1.216s-.4-.837-.611-1.239Z" transform="translate(-0.129 -47.112)" fill="#3e4095"/>
      <path id="Path_116" data-name="Path 116" d="M26.67,142.964l.951.962h6.416l-3.355-3.706a11.429,11.429,0,0,1-4.011,2.744Z" transform="translate(-11.653 -60.885)" fill="#ed3237"/>
      <path id="Path_117" data-name="Path 117" d="M197.2,140.5a1.584,1.584,0,1,0,1.584,1.584A1.584,1.584,0,0,0,197.2,140.5Zm0,2.733a1.132,1.132,0,1,1,1.132-1.132A1.132,1.132,0,0,1,197.2,143.233Zm.566-1.352a.509.509,0,0,0-.566-.52h-.566v1.448h.328v-.4h.266l.3.4h.379l-.362-.492a.492.492,0,0,0,.226-.436Zm-.566.221h-.238v-.436h.226c.277,0,.277.158.277.215s0,.221-.277.221Z" transform="translate(-85.014 -61.007)"/>
    </g>
  </g>
</svg>
