<svg width="24" height="26" viewBox="0 0 24 26" fill="none" xmlns="http://www.w3.org/2000/svg">
<g id="Group 193">
<path id="Vector" d="M3.89734 23.853C4.77482 24.9438 6.09307 26 7.61038 26C8.47365 26 9.20691 25.5937 9.99502 25.2972C10.7209 25.0295 11.4882 24.892 12.2618 24.8909C13.0082 24.8866 13.7478 25.0317 14.4373 25.3175C14.8029 25.4719 15.1644 25.6364 15.5361 25.7786C15.9133 25.9242 16.314 25.9992 16.7183 26C17.4662 25.9914 18.194 25.7571 18.8064 25.3276C20.5857 24.1089 21.904 21.968 22.8383 20.0932C22.9318 19.9064 23.0211 19.7175 23.1105 19.5306C23.2588 19.2178 23.0252 18.8217 22.6108 18.5942C20.7827 17.5908 19.7123 16.0389 19.5336 13.8981C19.3548 11.7572 20.1876 10.0672 21.8593 8.84036L22.1883 8.57021C22.3712 8.4199 22.2716 8.0035 21.9283 7.67851C20.6639 6.43337 18.9699 5.72087 17.1956 5.68793C16.8513 5.68809 16.5075 5.71663 16.1679 5.77324C14.6241 6.03729 13.3851 6.77259 11.9308 6.77259C11.4895 6.77305 11.0509 6.70452 10.6308 6.56947C9.41206 6.17948 8.20146 5.68793 6.90556 5.68793C6.76337 5.68793 6.61916 5.68793 6.47494 5.70621C4.87732 5.87647 3.38554 6.58653 2.24597 7.71913C-0.000540841 9.93315 -0.31944 13.372 0.241173 16.2786C0.779442 19.0939 2.10379 21.6309 3.89734 23.853Z" fill="white"/>
<path id="Vector_2" d="M11.7803 5.68796C11.8093 5.69054 11.8385 5.69054 11.8676 5.68796C16.1595 4.88766 16.6288 1.57274 16.6552 0.362139C16.6561 0.313189 16.6469 0.264578 16.6281 0.219351C16.6094 0.174124 16.5815 0.133258 16.5462 0.0993128C16.5109 0.065368 16.469 0.0390771 16.4231 0.0220881C16.3772 0.00509905 16.3283 -0.00222181 16.2794 0.00058444C16.2432 0.000548077 16.207 0.00463682 16.1717 0.0127717C11.8371 1.01619 11.3862 4.14221 11.374 5.31015C11.375 5.3619 11.3865 5.41292 11.4076 5.46017C11.4287 5.50741 11.4592 5.54992 11.4971 5.58517C11.535 5.62042 11.5796 5.64769 11.6282 5.66534C11.6769 5.683 11.7286 5.69069 11.7803 5.68796ZM15.7939 0.95322C15.6213 2.18413 14.9083 4.07924 12.2271 4.76985C12.3896 3.6141 13.0721 1.78195 15.7939 0.95322Z" fill="white"/>
</g>
</svg>
